<svg xmlns="http://www.w3.org/2000/svg" xmlns:xlink="http://www.w3.org/1999/xlink" fill="none" version="1.1" width="141.45468139648438" height="72" viewBox="0 0 141.45468139648438 72"><defs><clipPath id="master_svg0_1_1859"><rect x="0" y="0" width="141.45468139648438" height="72" rx="0"/></clipPath><linearGradient x1="0.00006586199015146121" y1="0.5000585317611694" x2="1" y2="0.5000585317611694" id="master_svg1_1_1893"><stop offset="0%" stop-color="#FDA9FF" stop-opacity="1"/><stop offset="100%" stop-color="#039CFF" stop-opacity="1"/></linearGradient><linearGradient x1="0.0000460808259958867" y1="0.4999726414680481" x2="1.0000461339950562" y2="0.4999726414680481" id="master_svg2_1_1887"><stop offset="0%" stop-color="#FDA9FF" stop-opacity="1"/><stop offset="100%" stop-color="#039CFF" stop-opacity="1"/></linearGradient><linearGradient x1="-0.00012557554873637855" y1="0.5" x2="0.9998744130134583" y2="0.5" id="master_svg3_1_1901"><stop offset="0%" stop-color="#FDA9FF" stop-opacity="1"/><stop offset="100%" stop-color="#039CFF" stop-opacity="1"/></linearGradient><linearGradient x1="-9.103828801926284e-15" y1="0.4999367296695709" x2="1" y2="0.4999367296695709" id="master_svg4_1_1872"><stop offset="0%" stop-color="#FDA9FF" stop-opacity="1"/><stop offset="100%" stop-color="#039CFF" stop-opacity="1"/></linearGradient><linearGradient x1="-0.00017686594219412655" y1="0.5" x2="0.9998231530189514" y2="0.5" id="master_svg5_1_1875"><stop offset="0%" stop-color="#FDA9FF" stop-opacity="1"/><stop offset="100%" stop-color="#039CFF" stop-opacity="1"/></linearGradient><linearGradient x1="-0.00003283101978013292" y1="0.4998500645160675" x2="0.9999671578407288" y2="0.4998500645160675" id="master_svg6_1_1869"><stop offset="0%" stop-color="#FDA9FF" stop-opacity="1"/><stop offset="100%" stop-color="#039CFF" stop-opacity="1"/></linearGradient><linearGradient x1="0.00012251899170223624" y1="0.5" x2="1.0001225471496582" y2="0.5" id="master_svg7_1_1866"><stop offset="0%" stop-color="#FDA9FF" stop-opacity="1"/><stop offset="100%" stop-color="#039CFF" stop-opacity="1"/></linearGradient><linearGradient x1="-2.55351295663786e-15" y1="0.5001838803291321" x2="1" y2="0.5001838803291321" id="master_svg8_1_1897"><stop offset="0%" stop-color="#FDA9FF" stop-opacity="1"/><stop offset="100%" stop-color="#039CFF" stop-opacity="1"/></linearGradient><linearGradient x1="2.5091040356528538e-14" y1="0.49989619851112366" x2="1" y2="0.49989619851112366" id="master_svg9_1_1878"><stop offset="0%" stop-color="#FDA9FF" stop-opacity="1"/><stop offset="100%" stop-color="#039CFF" stop-opacity="1"/></linearGradient><linearGradient x1="-1.1879386363489175e-14" y1="0.5001189708709717" x2="1" y2="0.5001189708709717" id="master_svga_1_1863"><stop offset="0%" stop-color="#FDA9FF" stop-opacity="1"/><stop offset="100%" stop-color="#039CFF" stop-opacity="1"/></linearGradient><linearGradient x1="-0.0000966090228757821" y1="0.5" x2="0.9999517202377319" y2="0.5" id="master_svgb_1_1883"><stop offset="0%" stop-color="#FDA9FF" stop-opacity="1"/><stop offset="100%" stop-color="#039CFF" stop-opacity="1"/></linearGradient></defs><g clip-path="url(#master_svg0_1_1859)"><g><path d="M11.5107,71.95856861328124L11.5107,68.11659861328125L1.29448,68.11659861328125C0.579205,68.11538861328125,0,67.53519861328125,0,66.81992861328125L0,63.21807861328125L1.05654,63.21807861328125L1.05654,67.06004861328125L11.5107,67.06004861328125L11.5107,63.21807861328125L12.565,63.21807861328125L12.565,71.94983861328124L11.5107,71.95856861328124Z" fill="#404865" fill-opacity="1"/></g><g><path d="M20.3647178515625,71.9323315234375C17.9511478515625,71.9356615234375,15.9927978515625,69.9800015234375,15.9927978515625,67.5664415234375C15.9927978515625,65.1528715234375,17.9511478515625,63.1972306134375,20.3647178515625,63.2005615234375L28.5506978515625,63.2354827234375L28.5506978515625,64.2920315234375L20.3668978515625,64.2571115234375C18.5729078515625,64.3032115234375,17.1425678515625,65.7707815234375,17.1425678515625,67.5653515234375C17.1425678515625,69.3599415234375,18.5729078515625,70.8275015234375,20.3668978515625,70.8736115234375L28.5528978515625,70.9107215234375L28.5528978515625,71.9650815234375L20.3647178515625,71.9323315234375ZM20.9824778515625,68.1361915234375L20.9824778515625,67.0818215234375L28.5441978515625,67.1145715234375L28.5441978515625,68.1689415234375L20.9824778515625,68.1361915234375Z" fill="#404865" fill-opacity="1"/></g><g><path d="M38.677318242187496,71.95845249999999C38.3255882421875,71.9579125,37.9891682421875,71.8145125,37.7451982421875,71.5611525L37.7080882421875,71.5218625L32.7156982421875,63.7003725L33.6041572421875,63.1328125L38.677318242187496,71.0809025L43.750498242187504,63.1437246L44.6388982421875,63.7112845L39.6487282421875,71.5305925L39.611618242187504,71.5698825C39.3656582421875,71.8205825,39.0285182421875,71.9607925,38.677318242187496,71.95845249999999Z" fill="#404865" fill-opacity="1"/></g><g><path d="M52.0434923046875,71.92137571289062C49.6322923046875,71.92137571289062,47.6776123046875,69.96670571289063,47.6776123046875,67.55548571289063C47.6776123046875,65.14427571289062,49.6322923046875,63.189605712890625,52.0434923046875,63.189605712890625L60.2317123046875,63.224526912890624L60.2317123046875,64.28107571289063L52.0456823046875,64.24396571289063C50.2179823046875,64.24396571289063,48.7363423046875,65.72560571289063,48.7363423046875,67.55331571289062C48.7363423046875,69.38101571289063,50.2179823046875,70.86265571289063,52.0456823046875,70.86265571289063L60.2339123046875,70.89757571289063L60.2339123046875,71.95412571289063L52.0434923046875,71.92137571289062ZM52.6678123046875,68.12523571289063L52.6678123046875,67.06868571289063L60.2295123046875,67.10143571289062L60.2295123046875,68.15798571289062L52.6678123046875,68.12523571289063Z" fill="#404865" fill-opacity="1"/></g><g><path d="M69.498390390625,71.9781197265625C68.783110390625,71.9781297265625,68.202920390625,71.3989097265625,68.201730390625,70.6836297265625L68.201730390625,68.3675297265625C68.201710390625,67.6513997265625,68.782260390625,67.0708697265625,69.498390390625,67.0708697265625L73.698400390625,67.0708697265625C74.479600390625,67.0684497265625,75.111000390625,66.4331797265625,75.108600390625,65.6519497265625L75.108600390625,65.6039297265625C75.108600390625,64.8564597265625,74.502600390625,64.2505097265625,73.755100390625,64.2505097265625L64.654440390625,64.2505097265625L64.654440390625,71.9759397265625L63.597900390625,71.9759397265625L63.597900390625,64.4884497265625C63.599092850625,63.7740137265625,64.177957390625,63.1951555265625,64.892380390625,63.1939697265625L73.755100390625,63.1939697265625C75.081300390625,63.1939697265625,76.156400390625,64.2690397265625,76.156400390625,65.5952097265625L76.156400390625,65.6432197265625C76.156400390625,67.0069797265625,75.053400390625,68.1138597265625,73.689600390625,68.1186897265625L69.258270390625,68.1186897265625L69.258270390625,70.9150297265625L75.807100390625,70.9150297265625L75.807100390625,71.9693997265625L69.498390390625,71.9781197265625Z" fill="#404865" fill-opacity="1"/></g><g><path d="M81.23172859375,71.95420861328125C80.51644859375,71.95419861328125,79.93627104375,71.37498861328125,79.93505859375,70.65972861328125L79.93505859375,63.21807861328125L80.99160859375,63.21807861328125L80.99160859375,70.89985861328125L92.45425859375,70.89985861328125L92.45425859375,71.95421861328126L81.23172859375,71.95420861328125Z" fill="#404865" fill-opacity="1"/></g><g><path d="M107.7217595703125,71.95420861328125L107.7217595703125,68.53353861328125L100.0464995703125,68.53353861328125L100.0464995703125,67.47698861328125L107.7217595703125,67.47698861328125L107.7217595703125,64.27461861328125L97.2654195703125,64.27461861328125L97.2654195703125,71.95420861328125L96.2110595703125,71.95420861328125L96.2110595703125,64.51255861328124C96.2122587003125,63.79813661328125,96.7911165703125,63.21927774328125,97.5055395703125,63.21807861328125L107.4815595703125,63.21807861328125C108.1960595703125,63.21927774328125,108.7748595703125,63.79813661328125,108.7760595703125,64.51255861328124L108.7760595703125,71.95421861328126L107.7217595703125,71.95420861328125Z" fill="#404865" fill-opacity="1"/></g><g><path d="M123.8121287109375,71.99999744140625C123.6030287109375,71.99983744140624,123.3970287109375,71.94888744140624,123.2118287109375,71.85155744140624L123.1638287109375,71.82535744140625L113.5938087109375,63.98642544140625L113.5938087109375,71.95853744140625L112.5394420345375,71.95853744140625L112.5394420345375,64.47104744140626C112.5375101109375,64.01832244140626,112.7738047109375,63.59794844140625,113.1615757109375,63.36429244140625C113.3643617109375,63.24127534140625,113.5967387109375,63.17564318140625,113.8339287109375,63.17437744140625C114.0423987109375,63.17455064840625,114.2476887109375,63.22550014140625,114.4320487109375,63.32281544140625L114.4800687109375,63.34682544140625L124.0501287109375,71.18794744140625L124.0501287109375,63.21584054140625L125.1088287109375,63.21584054140625L125.1088287109375,70.70332744140624C125.1076287109375,71.41726744140625,124.5304287109375,71.99639744140624,123.8165287109375,71.99999744140625L123.8121287109375,71.99999744140625Z" fill="#404865" fill-opacity="1"/></g><g><path d="M128.86773681640625,71.95851235351563L128.86773681640625,67.45073235351562L129.92428681640624,67.45073235351562L129.92428681640624,70.90414235351562L137.08870681640624,70.90414235351562C138.91643681640625,70.90414235351562,140.39803681640626,69.42250235351563,140.39803681640626,67.59480235351563C140.39803681640626,65.76710235351563,138.91643681640625,64.28546235351563,137.08870681640624,64.28546235351563L128.86773681640625,64.28546235351563L128.86773681640625,63.228912353515625L137.08869681640624,63.228912353515625C139.49993681640626,63.228925677115626,141.45463681640626,65.18359235351562,141.45463681640626,67.59481235351562C141.45463681640626,70.00603235351562,139.49993681640626,71.96070235351563,137.08869681640624,71.96068235351562L128.86773681640625,71.95851235351563Z" fill="#404865" fill-opacity="1"/></g><g><path d="M70.7273447265625,42.59146376953125C58.9644547265625,42.59226376953125,49.4283447265625,33.05716376953125,49.4283447265625,21.29466376953125C49.4275386475625,9.53299376953125,58.9626747265625,-0.00213623046875,70.7251447265625,-0.00213623046875C82.4867447265625,-0.00294230946875,92.02194472656251,9.53316376953125,92.02194472656251,21.29686376953125C92.0087447265625,33.05206376953125,82.48254472656251,42.57826376953125,70.7273447265625,42.59146376953125ZM70.7273447265625,0.69203776953125C59.3476047265625,0.69204476953125,50.1225327265625,9.91712376953125,50.1225327265625,21.29686376953125C50.1225327265625,32.67656376953125,59.3476047265625,41.90166376953125,70.7273447265625,41.90166376953125C82.10704472656249,41.90166376953125,91.33214472656249,32.67656376953125,91.33214472656249,21.29686376953125C91.3201447265625,9.92211376953125,82.1020447265625,0.70406876953125,70.7273447265625,0.69203776953125Z" fill="url(#master_svg1_1_1893)" fill-opacity="1"/></g><g><path d="M70.72952490234375,41.24446279296875L70.72952490234375,40.55256279296875C83.40802490234375,40.55256279296875,93.72022490234374,31.91456279296875,93.72022490234374,21.29676279296875C93.72022490234374,10.67895279296875,83.41462490234375,2.03885879296875,70.72732490234375,2.03885879296875C58.04002490234375,2.03885879296875,47.73219890234375,10.67676279296875,47.73219890234375,21.29456279296875C47.73219890234375,31.91236279296875,58.04662490234375,40.55256279296875,70.72732490234375,40.55256279296875L70.72732490234375,41.24446279296875C57.664624902343746,41.24446279296875,47.03802490234375,32.29446279296875,47.03802490234375,21.29456279296875C47.03802490234375,10.29474279296875,57.66242490234375,1.34686279296875,70.72292490234375,1.34686279296875C83.78352490234374,1.34686279296875,94.41002490234375,10.29692279296875,94.41002490234375,21.29676279296875C94.41002490234375,32.29656279296875,83.78782490234374,41.24446279296875,70.72952490234375,41.24446279296875Z" fill="url(#master_svg2_1_1887)" fill-opacity="1"/></g><g><path d="M70.73389140625,39.89539506835938C56.35489140625,39.89539506835938,44.65869140625,31.549995068359376,44.65869140625,21.292395068359376C44.65869140625,11.034725068359375,56.35269140625,2.693695068359375,70.72739140625,2.693695068359375C85.10209140625,2.693695068359375,96.80919140625,11.039085068359375,96.80919140625,21.296695068359377C96.80919140625,31.554395068359376,85.10859140625,39.89539506835938,70.73389140625,39.89539506835938ZM70.73389140625,3.385684068359375C56.73469140625,3.385684068359375,45.34849540625,11.418915068359375,45.34849540625,21.285795068359374C45.34849540625,31.152695068359375,56.73689140625,39.19909506835938,70.73389140625,39.19909506835938C84.72659140625001,39.19909506835938,96.11059140625,31.165795068359376,96.11059140625,21.298895068359375C96.11059140625,11.432015068359375,84.72439140624999,3.385684068359375,70.72739140625,3.385684068359375L70.73389140625,3.385684068359375Z" fill="url(#master_svg3_1_1901)" fill-opacity="1"/></g><g><path d="M70.73815771484375,38.548552392578124L70.72725771484374,38.548552392578124C55.03185771484375,38.548552392578124,42.26165771484375,30.807852392578123,42.26165771484375,21.290152392578126C42.26165771484375,11.772562392578125,55.02535771484375,4.044952392578125,70.71625771484375,4.044952392578125C86.40735771484376,4.044952392578125,99.19275771484375,11.785662392578125,99.19275771484375,21.301052392578125C99.19275771484375,30.816552392578124,86.42695771484375,38.548552392578124,70.73815771484375,38.548552392578124ZM70.72725771484374,4.732577392578125C55.40735771484375,4.732577392578125,42.95364671484375,12.154582392578124,42.95364671484375,21.290152392578126C42.95364671484375,30.425752392578126,55.41165771484375,37.85655239257812,70.72725771484374,37.85655239257812L70.73815771484375,37.85655239257812C86.04715771484375,37.85655239257812,98.50075771484376,30.434552392578127,98.50075771484376,21.296752392578124C98.50075771484376,12.158952392578126,86.03405771484375,4.732577392578125,70.72725771484374,4.732577392578125Z" fill="url(#master_svg4_1_1872)" fill-opacity="1"/></g><g><path d="M70.75358525390625,37.201651171875L70.73828525390624,37.201651171875C53.72438525390625,37.201651171875,39.88238525390625,30.063451171875,39.88238525390625,21.287951171875C39.88238525390625,12.512581171875,53.717885253906246,5.387451171875,70.72298525390624,5.387451171875C87.72818525390625,5.387451171875,101.59418525390625,12.525681171875,101.59418525390625,21.298951171875C101.59418525390625,30.072151171875,87.74778525390624,37.201651171875,70.75358525390625,37.201651171875ZM70.73828525390624,6.077255171875C62.661385253906246,6.077255171875,55.05818525390625,7.701361171875,49.31707525390625,10.648331171875C43.67852525390625,13.540731171875,40.57438125390625,17.321551171875,40.57438125390625,21.287951171875C40.57438125390625,25.254351171875,43.68071525390625,29.041751171875,49.32144525390625,31.936351171875C55.05608525390625,34.885551171875,62.661385253906246,36.511851171875,70.72738525390625,36.511851171875L70.74268525390625,36.856751171875004L70.74268525390625,36.511851171875C78.80428525390624,36.511851171875,86.40528525390624,34.887751171874996,92.14638525390626,31.942951171875C97.78498525390626,29.048351171875,100.89128525390625,25.267551171875,100.89128525390625,21.301051171875002C100.89128525390625,17.334651171875002,97.78498525390626,13.547291171875,92.14638525390626,10.650531171875C86.39878525390625,7.697011171874999,78.79338525390625,6.077261171875,70.72738525390625,6.077261171875L70.73828525390624,6.077255171875Z" fill="url(#master_svg5_1_1875)" fill-opacity="1"/></g><g><path d="M70.75341533203125,35.85694174804688L70.72941533203125,35.85694174804688C52.39271533203125,35.85694174804688,37.48321533203125,29.323441748046875,37.48321533203125,21.292441748046876C37.48321533203125,13.261351748046875,52.38831533203125,6.736541748046875,70.70541533203125,6.736541748046875C89.06181533203124,6.736541748046875,103.97351533203125,13.272271748046876,103.97351533203125,21.303341748046876C103.97351533203125,29.334341748046874,89.07051533203125,35.85694174804688,70.75341533203125,35.85694174804688ZM70.72941533203125,7.428537748046875C53.07381533203125,7.428537748046875,38.17520433203125,13.776531748046875,38.17520433203125,21.292441748046876C38.17520433203125,28.808241748046875,53.08471533203125,35.16494174804687,70.72941533203125,35.16494174804687L70.75341533203125,35.512041748046876L70.75341533203125,35.16494174804687C88.38721533203125,35.16494174804687,103.27931533203125,28.817041748046876,103.27931533203125,21.303341748046876C103.27931533203125,13.789631748046876,88.37411533203125,7.424166748046875,70.72721533203125,7.424166748046875L70.72941533203125,7.428537748046875Z" fill="url(#master_svg6_1_1869)" fill-opacity="1"/></g><g><path d="M70.75352851562499,34.50571000976562L70.718628515625,34.50571000976562C51.072128515624996,34.50571000976562,35.084228515625,28.574610009765625,35.084228515625,21.285810009765626C35.084228515625,13.996970009765626,51.054628515625,8.079010009765625,70.68582851562499,8.079010009765625C90.367228515625,8.079010009765625,106.352928515625,14.010070009765625,106.352928515625,21.298910009765628C106.352928515625,28.587710009765626,90.400028515625,34.50571000976562,70.75352851562499,34.50571000976562ZM70.718628515625,8.770999009765625C51.761928515625,8.770999009765625,35.774045515625,14.503400009765624,35.774045515625,21.285810009765626C35.774045515625,28.068210009765625,51.777228515625,33.81371000976563,70.718628515625,33.81371000976563L70.75352851562499,33.81371000976563C89.67522851562501,33.81371000976563,105.660928515625,28.083510009765625,105.660928515625,21.298910009765628C105.660928515625,14.514320009765626,89.66872851562499,8.771005009765625,70.727328515625,8.771005009765625L70.718628515625,8.770999009765625Z" fill="url(#master_svg7_1_1866)" fill-opacity="1"/></g><g><path d="M70.77313671875001,33.15896684570313L70.72953671875,33.15896684570313C60.71633671875,33.15896684570313,51.21613671875,31.921266845703126,43.98193671875,29.666266845703124C36.70833671875,27.409066845703126,32.70263671875,24.427166845703127,32.70263671875,21.274966845703126C32.70263671875,18.122836845703127,36.70396671875,15.149676845703125,43.966636718749996,12.894686845703125C51.19213671875,10.652816845703125,60.68143671875,9.417266845703125,70.68143671875,9.417266845703125L70.72953671875,9.417266845703125C80.74043671875,9.417266845703125,90.23843671875,10.654996845703124,97.47273671875,12.909976845703126C104.74623671875,15.167136845703125,108.75203671875,18.149036845703122,108.75203671875,21.301166845703126C108.75203671875,24.453366845703123,104.75063671875,27.426566845703125,97.48803671875,29.681566845703124C90.26023671875001,31.927766845703125,80.77323671875,33.15896684570313,70.77313671875001,33.15896684570313ZM70.68143671875,10.117995845703126C50.81673671875,10.117995845703126,33.39463271875,15.335226845703126,33.39463271875,21.283766845703127C33.39463271875,27.232266845703126,50.84073671875,32.466966845703126,70.72293671874999,32.466966845703126L70.76663671875,32.466966845703126C90.63133671874999,32.466966845703126,108.05343671875,27.247566845703126,108.05343671875,21.301166845703126C108.05343671875,15.354876845703124,90.60953671875001,10.117995845703126,70.72513671875001,10.117995845703126L70.68143671875,10.117995845703126Z" fill="url(#master_svg8_1_1897)" fill-opacity="1"/></g><g><path d="M70.79055585937499,31.809949462890625L70.72945585937501,31.809949462890625C60.113855859375,31.809949462890625,50.022055859375,30.718449462890625,42.307555859375,28.714549462890623C34.593015859375,26.710549462890626,30.312255859375,24.073549462890625,30.312255859375,21.292549462890626C30.312255859375,18.511439462890625,34.564635859375,15.872259462890625,42.287855859375,13.870499462890624C50.011155859374995,11.868739462890625,60.067955859375004,10.779449462890625,70.66615585937501,10.779449462890625L70.72945585937501,10.779449462890625C81.34075585937501,10.779449462890625,91.432455859375,11.870919462890624,99.147055859375,13.877049462890625C106.861455859375,15.883169462890624,111.142255859375,18.517979462890626,111.142255859375,21.299049462890626C111.142255859375,24.080149462890624,106.889855859375,26.719349462890627,99.166655859375,28.721049462890626C91.443455859375,30.722849462890625,81.38875585937501,31.809949462890625,70.79055585937499,31.809949462890625ZM70.66615585937501,11.464896462890625C47.293355859375,11.464896462890625,31.004244859375,16.638469462890626,31.004244859375,21.288149462890622C31.004244859375,25.937849462890625,47.317355859375,31.124449462890624,70.733855859375,31.124449462890624L70.794955859375,31.124449462890624C94.167755859375,31.124449462890624,110.454655859375,25.950949462890627,110.454655859375,21.301249462890624C110.454655859375,16.651569462890624,94.141555859375,11.464896462890625,70.725055859375,11.464896462890625L70.66615585937501,11.464896462890625Z" fill="url(#master_svg9_1_1878)" fill-opacity="1"/></g><g><path d="M70.81478017578125,30.462989697265623L70.72968017578125,30.462989697265623C47.527180175781254,30.462989697265623,27.92218017578125,26.258689697265623,27.92218017578125,21.281549697265625C27.92218017578125,16.304439697265625,47.485680175781255,12.113189697265625,70.64238017578126,12.113189697265625L70.72968017578125,12.113189697265625C93.93218017578126,12.113189697265625,113.53288017578124,16.319719697265626,113.53288017578124,21.294649697265626C113.53288017578124,26.269589697265623,93.96928017578125,30.462989697265623,70.81478017578125,30.462989697265623ZM70.64238017578126,12.811727697265624C59.509380175781246,12.811727697265624,48.88938017578125,13.765669697265626,40.74918017578125,15.501109697265624C33.150320175781246,17.120859697265626,28.62290317578125,19.279789697265624,28.62290317578125,21.281549697265625C28.62290317578125,23.283289697265623,33.16997017578125,25.450989697265626,40.78628017578125,27.075089697265625C48.943880175781246,28.821489697265626,59.58138017578125,29.770989697265627,70.73838017578126,29.770989697265627L70.82358017578125,29.770989697265627C81.95658017578126,29.770989697265627,92.57438017578124,28.817089697265626,100.71458017578125,27.081589697265628C108.31338017578125,25.461889697265626,112.84958017578126,23.302989697265623,112.84958017578126,21.301199697265623C112.84958017578126,19.299429697265623,108.30248017578126,17.131769697265625,100.68628017578125,15.507659697265625C92.52858017578124,13.761309697265625,81.89328017578126,12.811727697265624,70.73838017578126,12.811727697265624L70.64238017578126,12.811727697265624Z" fill="url(#master_svga_1_1863)" fill-opacity="1"/></g><g><path d="M70.845324609375,29.113852734375L70.72962460937501,29.113852734375C46.230524609374996,29.113852734375,25.542724609375,25.525152734375,25.542724609375,21.279312734375C25.542724609375,17.033482734375,46.186824609375,13.466552734375,70.622724609375,13.466552734375L70.738324609375,13.466552734375C95.235324609375,13.466552734375,115.925324609375,17.055312734375,115.925324609375,21.303312734374998C115.925324609375,25.551352734375,95.279024609375,29.113852734375,70.845324609375,29.113852734375ZM70.613924609375,14.158548734375C58.900324609375,14.158548734375,47.693024609375,14.979332734375,39.035524609375,16.468102734375C29.589904609375,18.094392734375,26.223801609375,20.019742734375,26.223801609375,21.270572734375C26.223801609375,22.521402734375002,29.600814609375,24.464252734375002,39.074824609375,26.097052734374998C47.747624609374995,27.592352734374998,58.989824609375,28.415352734375,70.72742460937499,28.415352734375L70.843124609375,28.415352734375C82.552524609375,28.415352734375,93.764024609375,27.594552734375,102.417224609375,26.103652734375C111.862824609375,24.477352734375,115.226724609375,22.551962734375,115.226724609375,21.301132734375C115.226724609375,20.050302734375002,111.851924609375,18.105302734375,102.380124609375,16.472472734375C93.705124609375,14.979332734375,82.46512460937501,14.156369734375,70.72742460937499,14.156369734375L70.613924609375,14.158548734375Z" fill="url(#master_svgb_1_1883)" fill-opacity="1"/></g></g></svg>