<svg xmlns="http://www.w3.org/2000/svg" xmlns:xlink="http://www.w3.org/1999/xlink" fill="none" version="1.1" width="141.4547119140625" height="72" viewBox="0 0 141.4547119140625 72"><defs><clipPath id="master_svg0_1_634"><rect x="0" y="0" width="141.4547119140625" height="72" rx="0"/></clipPath></defs><g clip-path="url(#master_svg0_1_634)"><g><path d="M11.5107,71.95878223632812L11.5107,68.11681223632813L1.29448,68.11681223632813C0.579205,68.11560223632813,0,67.53541223632813,0,66.82014223632812L0,63.218292236328125L1.05654,63.218292236328125L1.05654,67.06026223632813L11.5107,67.06026223632813L11.5107,63.218292236328125L12.565,63.218292236328125L12.565,71.95005223632812L11.5107,71.95878223632812Z" fill="#333333" fill-opacity="1"/></g><g><path d="M20.36526716796875,71.93254514648437C17.95169716796875,71.93587514648438,15.99334716796875,69.98021514648437,15.99334716796875,67.56665514648438C15.99334716796875,65.15308514648437,17.95169716796875,63.19744423648437,20.36526716796875,63.200775146484375L28.55124716796875,63.235696346484374L28.55124716796875,64.29224514648438L20.36744716796875,64.25732514648438C18.57345716796875,64.30342514648437,17.14311716796875,65.77099514648438,17.14311716796875,67.56556514648437C17.14311716796875,69.36015514648437,18.57345716796875,70.82771514648438,20.36744716796875,70.87382514648438L28.55344716796875,70.91093514648438L28.55344716796875,71.96529514648438L20.36526716796875,71.93254514648437ZM20.98302716796875,68.13640514648438L20.98302716796875,67.08203514648437L28.54474716796875,67.11478514648438L28.54474716796875,68.16915514648437L20.98302716796875,68.13640514648438Z" fill="#333333" fill-opacity="1"/></g><g><path d="M38.677562382812496,71.95881871093749C38.3258323828125,71.9582787109375,37.9894123828125,71.8148787109375,37.7454423828125,71.5615187109375L37.7083323828125,71.5222287109375L32.7159423828125,63.7007387109375L33.6044013828125,63.1331787109375L38.677562382812496,71.0812687109375L43.750742382812504,63.1440908109375L44.6391423828125,63.7116507109375L39.6489723828125,71.5309587109375L39.611862382812504,71.5702487109375C39.3659023828125,71.8209487109375,39.0287623828125,71.9611587109375,38.677562382812496,71.95881871093749Z" fill="#333333" fill-opacity="1"/></g><g><path d="M52.04404162109375,71.92189451171875C49.63284162109375,71.92189451171875,47.67816162109375,69.96722451171875,47.67816162109375,67.55600451171875C47.67816162109375,65.14479451171874,49.63284162109375,63.19012451171875,52.04404162109375,63.19012451171875L60.23226162109375,63.22504571171875L60.23226162109375,64.28159451171875L52.04623162109375,64.24448451171875C50.21853162109375,64.24448451171875,48.73689162109375,65.72612451171875,48.73689162109375,67.55383451171875C48.73689162109375,69.38153451171875,50.21853162109375,70.86317451171875,52.04623162109375,70.86317451171875L60.23446162109375,70.89809451171875L60.23446162109375,71.95464451171875L52.04404162109375,71.92189451171875ZM52.66836162109375,68.12575451171875L52.66836162109375,67.06920451171875L60.23006162109375,67.10195451171874L60.23006162109375,68.15850451171875L52.66836162109375,68.12575451171875Z" fill="#333333" fill-opacity="1"/></g><g><path d="M69.49857349609375,71.9776314453125C68.78329349609375,71.9776414453125,68.20310349609375,71.3984214453125,68.20191349609375,70.6831414453125L68.20191349609375,68.3670414453125C68.20189349609375,67.6509114453125,68.78244349609375,67.0703814453125,69.49857349609375,67.0703814453125L73.69858349609375,67.0703814453125C74.47978349609375,67.0679614453125,75.11118349609374,66.4326914453125,75.10878349609375,65.6514614453125L75.10878349609375,65.6034414453125C75.10878349609375,64.8559714453125,74.50278349609376,64.2500214453125,73.75528349609375,64.2500214453125L64.65462349609375,64.2500214453125L64.65462349609375,71.9754514453125L63.59808349609375,71.9754514453125L63.59808349609375,64.4879614453125C63.59927595609375,63.7735254453125,64.17814049609375,63.1946672453125,64.89256349609374,63.1934814453125L73.75528349609375,63.1934814453125C75.08148349609375,63.1934814453125,76.15658349609375,64.2685514453125,76.15658349609375,65.5947214453125L76.15658349609375,65.6427314453125C76.15658349609375,67.0064914453125,75.05358349609375,68.1133714453125,73.68978349609375,68.1182014453125L69.25845349609375,68.1182014453125L69.25845349609375,70.9145414453125L75.80728349609375,70.9145414453125L75.80728349609375,71.9689114453125L69.49857349609375,71.9776314453125Z" fill="#333333" fill-opacity="1"/></g><g><path d="M81.231972734375,71.95442223632813C80.516692734375,71.95441223632812,79.936515184375,71.37520223632812,79.935302734375,70.65994223632812L79.935302734375,63.218292236328125L80.991852734375,63.218292236328125L80.991852734375,70.90007223632813L92.454502734375,70.90007223632813L92.454502734375,71.95443223632813L81.231972734375,71.95442223632813Z" fill="#333333" fill-opacity="1"/></g><g><path d="M107.7215154296875,71.95442223632813L107.7215154296875,68.53375223632813L100.0462654296875,68.53375223632813L100.0462654296875,67.47720223632813L107.7215154296875,67.47720223632813L107.7215154296875,64.27483223632812L97.2651854296875,64.27483223632812L97.2651854296875,71.95442223632813L96.2108154296875,71.95442223632813L96.2108154296875,64.51277223632812C96.2120145596875,63.798350236328126,96.7908724296875,63.21949136632813,97.5052954296875,63.218292236328125L107.4813154296875,63.218292236328125C108.1958154296875,63.21949136632813,108.7746154296875,63.798350236328126,108.7758154296875,64.51277223632812L108.7758154296875,71.95443223632813L107.7215154296875,71.95442223632813Z" fill="#333333" fill-opacity="1"/></g><g><path d="M123.81194560546875,71.99917346679688C123.60284560546874,71.99901346679687,123.39684560546876,71.94806346679687,123.21164560546875,71.85073346679687L123.16364560546874,71.82453346679688L113.59362560546874,63.98560146679687L113.59362560546874,71.95771346679687L112.53925892906875,71.95771346679687L112.53925892906875,64.47022346679688C112.53732700546875,64.01749846679688,112.77362160546875,63.59712446679688,113.16139260546875,63.363468466796874C113.36417860546875,63.240451366796876,113.59655560546875,63.174819206796876,113.83374560546875,63.173553466796875C114.04221560546875,63.17372667379688,114.24750560546875,63.224676166796876,114.43186560546874,63.321991466796874L114.47988560546875,63.34600146679688L124.04994560546875,71.18712346679688L124.04994560546875,63.215016566796876L125.10864560546875,63.215016566796876L125.10864560546875,70.70250346679687C125.10744560546875,71.41644346679688,124.53024560546875,71.99557346679687,123.81634560546875,71.99917346679688L123.81194560546875,71.99917346679688Z" fill="#333333" fill-opacity="1"/></g><g><path d="M128.8680419921875,71.9579935546875L128.8680419921875,67.4502135546875L129.9245919921875,67.4502135546875L129.9245919921875,70.9036235546875L137.0890119921875,70.9036235546875C138.9167419921875,70.9036235546875,140.3983419921875,69.4219835546875,140.3983419921875,67.5942735546875C140.3983419921875,65.7665835546875,138.9167419921875,64.2849435546875,137.0890119921875,64.2849435546875L128.8680419921875,64.2849435546875L128.8680419921875,63.2283935546875L137.0890019921875,63.2283935546875C139.5002419921875,63.2284068782875,141.4549419921875,65.1830735546875,141.4549419921875,67.5942935546875C141.4549419921875,70.0055135546875,139.5002419921875,71.9601735546875,137.0890019921875,71.9601635546875L128.8680419921875,71.9579935546875Z" fill="#333333" fill-opacity="1"/></g><g><path d="M70.72722265625,42.590914453125C58.96433265625,42.591714453125,49.42822265625,33.056514453125,49.42822265625,21.294114453125C49.42741657725,9.532444453125,58.96255265625,-0.002685546875,70.72502265625,-0.002685546875C82.48672265625001,-0.003491625875,92.02182265625001,9.532614453125,92.02182265625001,21.296314453125C92.00862265625,33.051514453125,82.48242265625001,42.577614453125,70.72722265625,42.590914453125ZM70.72722265625,0.691488453125C59.34749265625,0.691494453125,50.12241065625,9.916574453125,50.12241065625,21.296314453125C50.12241065625,32.676014453125,59.34749265625,41.901114453125,70.72722265625,41.901114453125C82.10692265624999,41.901114453125,91.33202265624999,32.676014453125,91.33202265624999,21.296314453125C91.32002265625,9.921564453125,82.10192265625,0.703519453125,70.72722265625,0.691488453125Z" fill="#333333" fill-opacity="1"/></g><g><path d="M70.7297080078125,41.24458486328125L70.7297080078125,40.55268486328125C83.4082080078125,40.55268486328125,93.7204080078125,31.91468486328125,93.7204080078125,21.29688486328125C93.7204080078125,10.67907486328125,83.4148080078125,2.03898086328125,70.7275080078125,2.03898086328125C58.0402080078125,2.03898086328125,47.7323820078125,10.67688486328125,47.7323820078125,21.29468486328125C47.7323820078125,31.91248486328125,58.0468080078125,40.55268486328125,70.7275080078125,40.55268486328125L70.7275080078125,41.24458486328125C57.664808007812496,41.24458486328125,47.0382080078125,32.29458486328125,47.0382080078125,21.29468486328125C47.0382080078125,10.29486486328125,57.6626080078125,1.34698486328125,70.7231080078125,1.34698486328125C83.78370800781249,1.34698486328125,94.4102080078125,10.29704486328125,94.4102080078125,21.29688486328125C94.4102080078125,32.29668486328125,83.7880080078125,41.24458486328125,70.7297080078125,41.24458486328125Z" fill="#333333" fill-opacity="1"/></g><g><path d="M70.7335251953125,39.8954255859375C56.3545251953125,39.8954255859375,44.6583251953125,31.5500255859375,44.6583251953125,21.2924255859375C44.6583251953125,11.0347555859375,56.3523251953125,2.6937255859375,70.7270251953125,2.6937255859375C85.1017251953125,2.6937255859375,96.8088251953125,11.0391255859375,96.8088251953125,21.2967255859375C96.8088251953125,31.5544255859375,85.1082251953125,39.8954255859375,70.7335251953125,39.8954255859375ZM70.7335251953125,3.3857145859375C56.7343251953125,3.3857145859375,45.3481291953125,11.4189455859375,45.3481291953125,21.2858255859375C45.3481291953125,31.1527255859375,56.7365251953125,39.1991255859375,70.7335251953125,39.1991255859375C84.72622519531251,39.1991255859375,96.1102251953125,31.1658255859375,96.1102251953125,21.2989255859375C96.1102251953125,11.4320455859375,84.72402519531249,3.3857145859375,70.7270251953125,3.3857145859375L70.7335251953125,3.3857145859375Z" fill="#333333" fill-opacity="1"/></g><g><path d="M70.73815771484375,38.54894912109375L70.72725771484374,38.54894912109375C55.03185771484375,38.54894912109375,42.26165771484375,30.80824912109375,42.26165771484375,21.29054912109375C42.26165771484375,11.77295912109375,55.02535771484375,4.04534912109375,70.71625771484375,4.04534912109375C86.40735771484376,4.04534912109375,99.19275771484375,11.78605912109375,99.19275771484375,21.30144912109375C99.19275771484375,30.81694912109375,86.42695771484375,38.54894912109375,70.73815771484375,38.54894912109375ZM70.72725771484374,4.73297412109375C55.40735771484375,4.73297412109375,42.95364671484375,12.15497912109375,42.95364671484375,21.29054912109375C42.95364671484375,30.42614912109375,55.41165771484375,37.85694912109375,70.72725771484374,37.85694912109375L70.73815771484375,37.85694912109375C86.04715771484375,37.85694912109375,98.50075771484376,30.43494912109375,98.50075771484376,21.29714912109375C98.50075771484376,12.15934912109375,86.03405771484375,4.73297412109375,70.72725771484374,4.73297412109375Z" fill="#333333" fill-opacity="1"/></g><g><path d="M70.753768359375,37.20171220703125L70.73846835937499,37.20171220703125C53.724568359375,37.20171220703125,39.882568359375,30.06351220703125,39.882568359375,21.28801220703125C39.882568359375,12.51264220703125,53.718068359374996,5.38751220703125,70.723168359375,5.38751220703125C87.728368359375,5.38751220703125,101.594368359375,12.52574220703125,101.594368359375,21.29901220703125C101.594368359375,30.07221220703125,87.747968359375,37.20171220703125,70.753768359375,37.20171220703125ZM70.73846835937499,6.07731620703125C62.661568359374996,6.07731620703125,55.058368359375,7.70142220703125,49.317258359375,10.64839220703125C43.678708359375,13.54079220703125,40.574564359375,17.32161220703125,40.574564359375,21.28801220703125C40.574564359375,25.25441220703125,43.680898359375,29.04181220703125,49.321628359375,31.93641220703125C55.056268359375,34.88561220703125,62.661568359374996,36.51191220703125,70.727568359375,36.51191220703125L70.742868359375,36.856812207031254L70.742868359375,36.51191220703125C78.804468359375,36.51191220703125,86.40546835937499,34.887812207031246,92.14656835937501,31.94301220703125C97.785168359375,29.04841220703125,100.891468359375,25.26761220703125,100.891468359375,21.301112207031252C100.891468359375,17.334712207031252,97.785168359375,13.54735220703125,92.14656835937501,10.65059220703125C86.398968359375,7.697072207031249,78.793568359375,6.07732220703125,70.727568359375,6.07732220703125L70.73846835937499,6.07731620703125Z" fill="#333333" fill-opacity="1"/></g><g><path d="M70.753354296875,35.857216406250004L70.729354296875,35.857216406250004C52.392654296875,35.857216406250004,37.483154296875,29.32371640625,37.483154296875,21.292616406249998C37.483154296875,13.26162640625,52.388254296875,6.73681640625,70.705354296875,6.73681640625C89.061754296875,6.73681640625,103.973454296875,13.272546406250001,103.973454296875,21.30361640625C103.973454296875,29.33461640625,89.070454296875,35.857216406250004,70.753354296875,35.857216406250004ZM70.729354296875,7.42881240625C53.073754296875,7.42881240625,38.175143296875,13.77680640625,38.175143296875,21.29271640625C38.175143296875,28.80851640625,53.084654296875,35.165216406249996,70.729354296875,35.165216406249996L70.753354296875,35.51231640625L70.753354296875,35.165216406249996C88.387154296875,35.165216406249996,103.279254296875,28.81731640625,103.279254296875,21.30361640625C103.279254296875,13.789906406250001,88.374054296875,7.42444140625,70.727154296875,7.42444140625L70.729354296875,7.42881240625Z" fill="#333333" fill-opacity="1"/></g><g><path d="M70.75304023437499,34.5056794921875L70.718140234375,34.5056794921875C51.071640234374996,34.5056794921875,35.083740234375,28.5745794921875,35.083740234375,21.2857794921875C35.083740234375,13.9969394921875,51.054140234375,8.0789794921875,70.68534023437499,8.0789794921875C90.366740234375,8.0789794921875,106.352440234375,14.0100394921875,106.352440234375,21.298879492187503C106.352440234375,28.5876794921875,90.399540234375,34.5056794921875,70.75304023437499,34.5056794921875ZM70.718140234375,8.7709684921875C51.761440234375,8.7709684921875,35.773557234375,14.503369492187499,35.773557234375,21.2857794921875C35.773557234375,28.0681794921875,51.776740234375,33.813679492187504,70.718140234375,33.813679492187504L70.75304023437499,33.813679492187504C89.67474023437501,33.813679492187504,105.660440234375,28.0834794921875,105.660440234375,21.298879492187503C105.660440234375,14.514289492187501,89.66824023437499,8.7709744921875,70.726840234375,8.7709744921875L70.718140234375,8.7709684921875Z" fill="#333333" fill-opacity="1"/></g><g><path d="M70.77277050781251,33.15972978515625L70.7291705078125,33.15972978515625C60.7159705078125,33.15972978515625,51.2157705078125,31.92202978515625,43.9815705078125,29.66702978515625C36.7079705078125,27.40982978515625,32.7022705078125,24.427929785156252,32.7022705078125,21.27572978515625C32.7022705078125,18.12359978515625,36.7036005078125,15.15043978515625,43.966270507812496,12.89544978515625C51.1917705078125,10.65357978515625,60.6810705078125,9.41802978515625,70.6810705078125,9.41802978515625L70.7291705078125,9.41802978515625C80.7400705078125,9.41802978515625,90.2380705078125,10.655759785156249,97.4723705078125,12.91073978515625C104.7458705078125,15.16789978515625,108.7516705078125,18.149799785156247,108.7516705078125,21.30192978515625C108.7516705078125,24.454129785156248,104.7502705078125,27.42732978515625,97.4876705078125,29.68232978515625C90.25987050781251,31.92852978515625,80.7728705078125,33.15972978515625,70.77277050781251,33.15972978515625ZM70.6810705078125,10.11875878515625C50.8163705078125,10.11875878515625,33.3942665078125,15.33598978515625,33.3942665078125,21.284529785156252C33.3942665078125,27.23302978515625,50.8403705078125,32.46772978515625,70.72257050781249,32.46772978515625L70.7662705078125,32.46772978515625C90.63097050781249,32.46772978515625,108.0530705078125,27.24832978515625,108.0530705078125,21.30192978515625C108.0530705078125,15.35563978515625,90.60917050781251,10.11875878515625,70.72477050781251,10.11875878515625L70.6810705078125,10.11875878515625Z" fill="#333333" fill-opacity="1"/></g><g><path d="M70.79043378906249,31.81046826171875L70.72933378906251,31.81046826171875C60.1137337890625,31.81046826171875,50.0219337890625,30.71896826171875,42.3074337890625,28.71506826171875C34.5928937890625,26.71106826171875,30.3121337890625,24.07406826171875,30.3121337890625,21.29306826171875C30.3121337890625,18.51195826171875,34.5645137890625,15.87277826171875,42.2877337890625,13.87101826171875C50.011033789062495,11.86925826171875,60.067833789062504,10.77996826171875,70.66603378906251,10.77996826171875L70.72933378906251,10.77996826171875C81.34063378906251,10.77996826171875,91.4323337890625,11.87143826171875,99.1469337890625,13.87756826171875C106.8613337890625,15.88368826171875,111.1421337890625,18.51849826171875,111.1421337890625,21.29956826171875C111.1421337890625,24.08066826171875,106.8897337890625,26.71986826171875,99.1665337890625,28.72156826171875C91.4433337890625,30.72336826171875,81.38863378906251,31.81046826171875,70.79043378906249,31.81046826171875ZM70.66603378906251,11.46541526171875C47.2932337890625,11.46541526171875,31.0041227890625,16.63898826171875,31.0041227890625,21.288668261718747C31.0041227890625,25.93836826171875,47.3172337890625,31.12496826171875,70.7337337890625,31.12496826171875L70.7948337890625,31.12496826171875C94.1676337890625,31.12496826171875,110.4545337890625,25.95146826171875,110.4545337890625,21.30176826171875C110.4545337890625,16.65208826171875,94.1414337890625,11.46541526171875,70.7249337890625,11.46541526171875L70.66603378906251,11.46541526171875Z" fill="#333333" fill-opacity="1"/></g><g><path d="M70.81465810546875,30.4632033203125L70.72955810546875,30.4632033203125C47.527058105468754,30.4632033203125,27.92205810546875,26.2589033203125,27.92205810546875,21.2817633203125C27.92205810546875,16.3046533203125,47.485558105468755,12.1134033203125,70.64225810546876,12.1134033203125L70.72955810546875,12.1134033203125C93.93205810546876,12.1134033203125,113.53275810546874,16.3199333203125,113.53275810546874,21.2948633203125C113.53275810546874,26.269803320312498,93.96915810546875,30.4632033203125,70.81465810546875,30.4632033203125ZM70.64225810546876,12.8119413203125C59.509258105468746,12.8119413203125,48.88925810546875,13.7658833203125,40.74905810546875,15.5013233203125C33.150198105468746,17.1210733203125,28.62278110546875,19.2800033203125,28.62278110546875,21.2817633203125C28.62278110546875,23.283503320312498,33.16984810546875,25.4512033203125,40.78615810546875,27.0753033203125C48.943758105468746,28.8217033203125,59.58125810546875,29.7712033203125,70.73825810546876,29.7712033203125L70.82345810546875,29.7712033203125C81.95645810546876,29.7712033203125,92.57425810546874,28.8173033203125,100.71445810546875,27.081803320312503C108.31325810546875,25.4621033203125,112.84945810546876,23.303203320312498,112.84945810546876,21.3014133203125C112.84945810546876,19.299643320312498,108.30235810546876,17.1319833203125,100.68615810546875,15.5078733203125C92.52845810546874,13.7615233203125,81.89315810546876,12.8119413203125,70.73825810546876,12.8119413203125L70.64225810546876,12.8119413203125Z" fill="#333333" fill-opacity="1"/></g><g><path d="M70.845812890625,29.11379169921875L70.73011289062501,29.11379169921875C46.231012890624996,29.11379169921875,25.543212890625,25.52509169921875,25.543212890625,21.27925169921875C25.543212890625,17.03342169921875,46.187312890625,13.46649169921875,70.623212890625,13.46649169921875L70.738812890625,13.46649169921875C95.235812890625,13.46649169921875,115.925812890625,17.05525169921875,115.925812890625,21.303251699218748C115.925812890625,25.55129169921875,95.279512890625,29.11379169921875,70.845812890625,29.11379169921875ZM70.614412890625,14.15848769921875C58.900812890625,14.15848769921875,47.693512890625,14.97927169921875,39.036012890625,16.46804169921875C29.590392890625,18.09433169921875,26.224289890625,20.01968169921875,26.224289890625,21.27051169921875C26.224289890625,22.521341699218752,29.601302890625,24.464191699218752,39.075312890625,26.096991699218748C47.748112890624995,27.592291699218748,58.990312890625,28.41529169921875,70.72791289062499,28.41529169921875L70.843612890625,28.41529169921875C82.553012890625,28.41529169921875,93.764512890625,27.59449169921875,102.417712890625,26.10359169921875C111.863312890625,24.47729169921875,115.227212890625,22.55190169921875,115.227212890625,21.30107169921875C115.227212890625,20.050241699218752,111.852412890625,18.10524169921875,102.380612890625,16.47241169921875C93.705612890625,14.97927169921875,82.46561289062501,14.15630869921875,70.72791289062499,14.15630869921875L70.614412890625,14.15848769921875Z" fill="#333333" fill-opacity="1"/></g></g></svg>