<svg version="1.1" id="Layer_1" xmlns="http://www.w3.org/2000/svg" xmlns:xlink="http://www.w3.org/1999/xlink" x="0px" y="0px"
	 width="1081" height="160" viewBox="0 0 1081 160" enable-background="new 0 0 1081 160" xml:space="preserve">
<path fill="#000000" opacity="000000" stroke="none" 
	d="
M290.000000,0.999999 
	C553.935974,1.000000 817.872009,1.000000 1081.904053,1.000000 
	C1081.904053,54.256256 1081.904053,107.512741 1081.904053,161.000000 
	C818.640869,161.000000 555.281677,161.000000 291.120056,160.784210 
	C296.752045,154.076340 303.103882,147.499680 309.643585,141.115463 
	C316.479950,134.441635 323.497009,127.952896 330.759216,121.076370 
	C316.643677,107.434471 303.099792,94.345055 289.270905,80.980194 
	C303.382538,67.336716 316.914490,54.253700 327.746918,43.780659 
	C315.639587,30.124208 304.056488,17.063400 292.482086,3.994912 
	C291.622894,3.024808 290.825897,1.999591 290.000000,0.999999 
M743.999329,30.499666 
	C733.327271,40.716801 722.655273,50.933937 711.911133,61.220097 
	C739.982910,88.058746 767.756165,114.611969 795.749573,141.375671 
	C797.441772,140.191284 799.041504,139.338745 800.312683,138.138260 
	C808.151489,130.735611 815.953491,123.292908 823.697266,115.790802 
	C836.345459,103.537354 848.899658,91.186752 861.573975,78.960495 
	C867.737244,73.015083 874.082275,67.258141 880.693054,61.091232 
	C866.188782,47.324249 852.184448,34.031761 837.808167,20.386246 
	C823.706726,33.835865 809.949036,46.957592 796.047424,60.216618 
	C785.464905,50.082298 774.974915,40.204582 764.678467,30.129045 
	C754.416199,20.086943 754.501343,19.999950 743.999329,30.499666 
M493.500397,135.998825 
	C505.752136,124.424873 518.003845,112.850929 530.419250,101.122368 
	C528.935669,99.557495 527.862732,98.311417 526.673218,97.188828 
	C515.346924,86.499321 503.908997,75.926247 492.683807,65.131859 
	C478.784180,51.765656 465.055786,38.221390 451.255402,24.752014 
	C450.540192,24.053930 449.785889,23.384850 449.148865,22.619757 
	C447.324677,20.428711 445.748566,20.692863 443.780457,22.637808 
	C440.495331,25.884287 436.868164,28.782515 433.545135,31.993114 
	C412.039612,52.771008 390.589874,73.606689 369.082886,94.383110 
	C366.765198,96.622040 364.197632,98.602264 361.296478,101.087578 
	C364.400085,103.711479 367.138275,105.788704 369.602814,108.151337 
	C380.155365,118.267624 390.711090,128.383850 401.070465,138.696152 
	C403.701935,141.315643 405.283783,141.326508 407.924011,138.700974 
	C419.705872,126.984619 431.690399,115.471947 443.620300,103.904877 
	C444.403351,103.145607 445.341705,102.546516 446.215485,101.866974 
	C460.234650,115.199989 474.009155,128.300308 488.167419,141.765625 
	C490.083771,139.677155 491.540924,138.089172 493.500397,135.998825 
M562.000000,41.501560 
	C562.000000,73.578537 562.000000,105.655510 562.000000,137.757706 
	C582.311340,137.757706 601.904968,137.757706 622.052917,137.757706 
	C622.052917,118.806328 622.052917,100.087746 622.052917,80.824760 
	C641.986694,80.824760 661.371155,80.824760 680.750000,80.824760 
	C680.750000,61.673599 680.750000,43.079556 680.750000,24.303991 
	C641.126343,24.303991 601.753540,24.303991 562.000000,24.303991 
	C562.000000,29.901772 562.000000,35.202072 562.000000,41.501560 
z"/>
<path fill="#000000" opacity="000000" stroke="none" 
	d="
M286.000000,161.000000 
	C191.056961,161.000000 96.113914,161.000000 1.085438,161.000000 
	C1.085438,107.755722 1.085438,54.511265 1.085438,1.000000 
	C95.687393,1.000000 190.375046,1.000000 285.872498,1.215962 
	C285.579773,2.664794 284.561981,3.987807 283.361420,5.116402 
	C273.005005,14.852059 262.510406,24.443115 252.261856,34.290520 
	C238.384506,47.624725 224.707489,61.167248 210.895493,74.569862 
	C208.612610,76.785080 206.079056,78.741959 203.705933,80.779930 
	C213.488800,90.017151 222.815048,98.675835 231.974823,107.507172 
	C245.231369,120.288368 258.361633,133.200500 271.569092,146.032776 
	C272.376617,146.817368 273.524445,147.265930 274.282318,148.085114 
	C278.229523,152.351852 282.101715,156.688004 286.000000,161.000000 
z"/>
<path fill="#6625DF" opacity="1.000000" stroke="none" 
	d="
M286.416656,161.000000 
	C282.101715,156.688004 278.229523,152.351852 274.282318,148.085114 
	C273.524445,147.265930 272.376617,146.817368 271.569092,146.032776 
	C258.361633,133.200500 245.231369,120.288368 231.974823,107.507172 
	C222.815048,98.675835 213.488800,90.017151 203.705933,80.779930 
	C206.079056,78.741959 208.612610,76.785080 210.895493,74.569862 
	C224.707489,61.167248 238.384506,47.624725 252.261856,34.290520 
	C262.510406,24.443115 273.005005,14.852059 283.361420,5.116402 
	C284.561981,3.987807 285.579773,2.664794 286.341156,1.215962 
	C287.066681,1.000000 288.133331,1.000000 289.600006,0.999999 
	C290.825897,1.999591 291.622894,3.024808 292.482086,3.994912 
	C304.056488,17.063400 315.639587,30.124208 327.746918,43.780659 
	C316.914490,54.253700 303.382538,67.336716 289.270905,80.980194 
	C303.099792,94.345055 316.643677,107.434471 330.759216,121.076370 
	C323.497009,127.952896 316.479950,134.441635 309.643585,141.115463 
	C303.103882,147.499680 296.752045,154.076340 290.658813,160.784210 
	C289.611115,161.000000 288.222198,161.000000 286.416656,161.000000 
z"/>
<path fill="#6625DF" opacity="1.000000" stroke="none" 
	d="
M744.249512,30.249447 
	C754.501343,19.999950 754.416199,20.086943 764.678467,30.129045 
	C774.974915,40.204582 785.464905,50.082298 796.047424,60.216618 
	C809.949036,46.957592 823.706726,33.835865 837.808167,20.386246 
	C852.184448,34.031761 866.188782,47.324249 880.693054,61.091232 
	C874.082275,67.258141 867.737244,73.015083 861.573975,78.960495 
	C848.899658,91.186752 836.345459,103.537354 823.697266,115.790802 
	C815.953491,123.292908 808.151489,130.735611 800.312683,138.138260 
	C799.041504,139.338745 797.441772,140.191284 795.749573,141.375671 
	C767.756165,114.611969 739.982910,88.058746 711.911133,61.220097 
	C722.655273,50.933937 733.327271,40.716801 744.249512,30.249447 
z"/>
<path fill="#6625DF" opacity="1.000000" stroke="none" 
	d="
M493.249207,136.250000 
	C491.540924,138.089172 490.083771,139.677155 488.167419,141.765625 
	C474.009155,128.300308 460.234650,115.199989 446.215485,101.866974 
	C445.341705,102.546516 444.403351,103.145607 443.620300,103.904877 
	C431.690399,115.471947 419.705872,126.984619 407.924011,138.700974 
	C405.283783,141.326508 403.701935,141.315643 401.070465,138.696152 
	C390.711090,128.383850 380.155365,118.267624 369.602814,108.151337 
	C367.138275,105.788704 364.400085,103.711479 361.296478,101.087578 
	C364.197632,98.602264 366.765198,96.622040 369.082886,94.383110 
	C390.589874,73.606689 412.039612,52.771008 433.545135,31.993114 
	C436.868164,28.782515 440.495331,25.884287 443.780457,22.637808 
	C445.748566,20.692863 447.324677,20.428711 449.148865,22.619757 
	C449.785889,23.384850 450.540192,24.053930 451.255402,24.752014 
	C465.055786,38.221390 478.784180,51.765656 492.683807,65.131859 
	C503.908997,75.926247 515.346924,86.499321 526.673218,97.188828 
	C527.862732,98.311417 528.935669,99.557495 530.419250,101.122368 
	C518.003845,112.850929 505.752136,124.424873 493.249207,136.250000 
z"/>
<path fill="#6625DF" opacity="1.000000" stroke="none" 
	d="
M562.000000,41.001968 
	C562.000000,35.202072 562.000000,29.901772 562.000000,24.303991 
	C601.753540,24.303991 641.126343,24.303991 680.750000,24.303991 
	C680.750000,43.079556 680.750000,61.673599 680.750000,80.824760 
	C661.371155,80.824760 641.986694,80.824760 622.052917,80.824760 
	C622.052917,100.087746 622.052917,118.806328 622.052917,137.757706 
	C601.904968,137.757706 582.311340,137.757706 562.000000,137.757706 
	C562.000000,105.655510 562.000000,73.578537 562.000000,41.001968 
z"/>
</svg>