<svg xmlns="http://www.w3.org/2000/svg" xmlns:xlink="http://www.w3.org/1999/xlink" fill="none" version="1.1" width="104.2127685546875" height="62" viewBox="0 0 104.2127685546875 62"><defs><clipPath id="master_svg0_1_1469"><rect x="0" y="0" width="104.2127685546875" height="62" rx="0"/></clipPath></defs><g clip-path="url(#master_svg0_1_1469)"><g><g><g><path d="M2.70562744140625,21.0827L6.12208744140625,0L11.73343744140625,0L9.081687441406249,16.7422L18.625927441406247,16.7422L17.90092744140625,21.0827L2.70562744140625,21.0827ZM20.53282744140625,21.0827L23.91942744140625,0L39.11472744140625,0L38.43942744140625,3.8755L28.58732744140625,3.8755L27.94172744140625,8.5261L37.09862744140625,8.5261L36.39352744140625,12.4016L27.24652744140625,12.4016L26.54142744140625,17.2072L36.36372744140625,17.2072L35.69832744140625,21.0827L20.53282744140625,21.0827ZM50.58592744140625,21.3927Q47.56632744140625,21.3927,45.18292744140625,20.3076Q42.80932744140625,19.2128,41.44872744140625,17.1006Q40.09802744140625,14.9788,40.09802744140625,11.8881Q40.09802744140625,8.53577,41.53802744140625,5.84229Q42.98812744140625,3.14884,45.80862744140625,1.57926Q48.63922744140625,0,52.72112744140625,0Q55.19412744140625,0,57.14072744140625,0.668523Q59.09702744140625,1.33705,60.11012744140625,2.29623L58.00482744140625,6.55929Q55.50192744140625,4.96062,52.45292744140625,4.96062Q50.28772744140625,4.96062,48.83762744140625,5.9392Q47.38782744140625,6.90808,46.63302744140625,8.49704Q45.88812744140625,10.0763,45.88812744140625,11.9365Q45.88812744140625,14.5816,47.36802744140625,15.8217Q48.84772744140625,17.0522,51.43982744140625,17.0522Q52.72112744140625,17.0522,54.25052744140625,16.684L54.79662744140625,13.1767L50.49622744140625,13.1767L51.07222744140625,9.30119L59.98092744140625,9.30119L58.24312744140625,19.9394Q56.56472744140625,20.7146,54.51872744140625,21.0536Q52.48282744140625,21.3927,50.58592744140625,21.3927ZM59.22632744140625,21.0827L72.71332744140625,0L77.16282744140625,0L83.78712744140626,21.0827L78.41372744140625,21.0827L77.28192744140625,16.7422L67.60862744140626,16.7422L65.04592744140625,21.0827L59.22632744140625,21.0827ZM74.26242744140625,6.04579L70.14092744140625,12.8666L76.15932744140625,12.8666L74.32222744140626,6.04579L74.26242744140625,6.04579ZM85.33622744140625,21.0827L88.75282744140625,0L94.36402744140625,0L91.71252744140625,16.7422L101.25662744140625,16.7422L100.53152744140625,21.0827L85.33622744140625,21.0827Z" fill="#333333" fill-opacity="1"/></g></g><g><g><path d="M0,50.84646456909179L3.90453,26.751964569091797L8.61492,26.751964569091797L17.5704,41.246364569091796L19.8745,26.751964569091797L25.8334,26.751964569091797L21.9289,50.84646456909179L17.2185,50.84646456909179L8.29714,36.60680456909179L5.95895,50.84646456909179L0,50.84646456909179Z" fill="#333333" fill-opacity="1"/></g></g><g><g><path d="M67.75263080078125,50.84655092773437L63.01007080078125,27.755950927734375L68.96005080078125,27.755950927734375L71.52711080078124,42.37855092773437L79.18477080078125,27.755950927734375L83.59017080078125,27.755950927734375L86.26597080078125,42.50585092773437L93.74967080078125,27.755950927734375L100.00427080078126,27.755950927734375L87.76707080078126,50.84655092773437L82.86137080078124,50.84655092773437L80.05497080078125,37.136500927734374L72.66923080078125,50.84655092773437L67.75263080078125,50.84655092773437Z" fill="#333333" fill-opacity="1"/></g></g><g><g><path d="M44.890906152343746,52.26372905883789Q45.22970615234375,52.26372905883789,45.56810615234375,52.24752905883789Q45.90650615234375,52.231329058837886,46.24370615234375,52.19892905883789Q46.58090615234375,52.166529058837895,46.91600615234375,52.11802905883789Q47.251206152343755,52.06952905883789,47.58350615234375,52.00502905883789Q47.91580615234375,51.94062905883789,48.24440615234375,51.86022905883789Q48.573106152343755,51.779929058837894,48.89740615234375,51.68402905883789Q49.22160615234375,51.58802905883789,49.54060615234375,51.47672905883789Q49.85960615234375,51.36532905883789,50.17260615234375,51.238829058837894Q50.48570615234375,51.11242905883789,50.792006152343745,50.971029058837885Q51.09820615234375,50.82972905883789,51.39710615234375,50.67392905883789Q51.69590615234375,50.518129058837886,51.98650615234375,50.34812905883789Q52.27710615234375,50.178229058837886,52.55880615234375,49.99462905883789Q52.84060615234375,49.810929058837885,53.11270615234375,49.614029058837886Q53.384906152343746,49.41712905883789,53.646706152343754,49.20752905883789Q53.908706152343754,48.997829058837894,54.15970615234375,48.775829058837886Q54.41080615234375,48.55382905883789,54.65040615234375,48.32012905883789Q54.89000615234375,48.08642905883789,55.11750615234375,47.84142905883789Q55.34500615234375,47.59652905883789,55.560006152343746,47.34102905883789Q55.774906152343746,47.08552905883789,55.976806152343755,46.82002905883789Q56.17860615234375,46.554529058837886,56.36680615234375,46.27972905883789Q56.55500615234375,46.00492905883789,56.72930615234375,45.721329058837895Q56.90340615234375,45.437929058837895,57.06320615234375,45.14632905883789Q57.222906152343754,44.85482905883789,57.36770615234375,44.55602905883789Q57.51260615234375,44.25722905883789,57.64230615234375,43.95182905883789Q57.771906152343746,43.64652905883789,57.88610615234375,43.335329058837885Q58.00020615234375,43.02402905883789,58.09860615234375,42.70772905883789Q58.19690615234375,42.39152905883789,58.27920615234375,42.07082905883789Q58.361606152343754,41.75022905883789,58.427706152343745,41.42602905883789Q58.49380615234375,41.10182905883789,58.54350615234375,40.774829058837895Q58.593206152343754,40.44792905883789,58.62640615234375,40.11892905883789Q58.65970615234375,39.79002905883789,58.67630615234375,39.459929058837886Q58.69290615234375,39.12972905883789,58.69290615234375,38.799229058837895Q58.69290615234375,38.468729058837894,58.67630615234375,38.13852905883789Q58.65970615234375,37.80842905883789,58.62640615234375,37.479429058837894Q58.593206152343754,37.15052905883789,58.54350615234375,36.82352905883789Q58.49380615234375,36.49652905883789,58.427706152343745,36.17242905883789Q58.361606152343754,35.84822905883789,58.27920615234375,35.52752905883789Q58.19690615234375,35.20696905883789,58.09860615234375,34.89062905883789Q58.00020615234375,34.57433905883789,57.88610615234375,34.26311905883789Q57.771906152343746,33.95192905883789,57.64230615234375,33.64653905883789Q57.51260615234375,33.34115905883789,57.36770615234375,33.04236905883789Q57.222906152343754,32.74353905883789,57.06320615234375,32.45204905883789Q56.90340615234375,32.16051905883789,56.72930615234375,31.87703905883789Q56.55500615234375,31.593509058837892,56.36680615234375,31.31867905883789Q56.17860615234375,31.04385905883789,55.976806152343755,30.778359058837893Q55.774906152343746,30.51285905883789,55.560006152343746,30.25738905883789Q55.34500615234375,30.00186905883789,55.11750615234375,29.75694905883789Q54.89000615234375,29.512039058837892,54.65040615234375,29.27830905883789Q54.41080615234375,29.04458905883789,54.15970615234375,28.82260905883789Q53.908706152343754,28.600639058837892,53.646706152343754,28.39094905883789Q53.384906152343746,28.18125905883789,53.11270615234375,27.98435905883789Q52.84060615234375,27.78745905883789,52.55880615234375,27.603819058837892Q52.27710615234375,27.420179058837892,51.98650615234375,27.25024905883789Q51.69590615234375,27.08032905883789,51.39710615234375,26.92450905883789Q51.09820615234375,26.76868905883789,50.792006152343745,26.62736905883789Q50.48570615234375,26.486049058837892,50.17260615234375,26.359559058837892Q49.85960615234375,26.233066058837892,49.54060615234375,26.12171305883789Q49.22160615234375,26.01035805883789,48.89740615234375,25.91440905883789Q48.573106152343755,25.81845705883789,48.244506152343746,25.73814605883789Q47.91580615234375,25.65783105883789,47.58350615234375,25.593347058837892Q47.251206152343755,25.528863058837892,46.91600615234375,25.48036405883789Q46.58090615234375,25.43186365883789,46.24370615234375,25.39946495883789Q45.90650615234375,25.367066358837892,45.56810615234375,25.35084765883789Q45.22970615234375,25.33462905883789,44.890906152343746,25.33462905883789Q44.55200615234375,25.33462905883789,44.21360615234375,25.35084765883789Q43.87520615234375,25.367066358837892,43.53800615234375,25.39946495883789Q43.20080615234375,25.43186365883789,42.86570615234375,25.48036405883789Q42.53050615234375,25.528863058837892,42.19820615234375,25.593347058837892Q41.865906152343754,25.65783105883789,41.53720615234375,25.73814605883789Q41.20850615234375,25.81845705883789,40.88434615234375,25.91440905883789Q40.560096152343746,26.01035805883789,40.24108615234375,26.12171305883789Q39.922066152343746,26.233066058837892,39.60903615234375,26.359559058837892Q39.29599615234375,26.486049058837892,38.989696152343754,26.62736905883789Q38.68342615234375,26.76868905883789,38.38459615234375,26.92450905883789Q38.08580615234375,27.08032905883789,37.79515615234375,27.25024905883789Q37.50454615234375,27.420179058837892,37.22282615234375,27.603819058837892Q36.94114615234375,27.78745905883789,36.66895615234375,27.98435905883789Q36.39681615234375,28.18125905883789,36.13492615234375,28.39094905883789Q35.87302615234375,28.600639058837892,35.62194615234375,28.82260905883789Q35.37090615234375,29.04458905883789,35.131326152343746,29.27830905883789Q34.89174615234375,29.512039058837892,34.66420615234375,29.75694905883789Q34.43666615234375,30.00186905883789,34.22172615234375,30.25738905883789Q34.00677615234375,30.51285905883789,33.80494615234375,30.778359058837893Q33.60310615234375,31.04385905883789,33.41486615234375,31.31867905883789Q33.22662615234375,31.593509058837892,33.05244615234375,31.87703905883789Q32.87825615234375,32.16051905883789,32.71853615234375,32.45204905883789Q32.55881615234375,32.74353905883789,32.41394615234375,33.04236905883789Q32.26908615234375,33.34115905883789,32.13942615234375,33.64653905883789Q32.00976415234375,33.95192905883789,31.89561815234375,34.26311905883789Q31.78147215234375,34.57433905883789,31.68311715234375,34.89062905883789Q31.58476215234375,35.20696905883789,31.50243615234375,35.52752905883789Q31.42011015234375,35.84822905883789,31.35400715234375,36.17242905883789Q31.28790815234375,36.49652905883789,31.23819415234375,36.82352905883789Q31.18847635234375,37.15052905883789,31.15526745234375,37.479429058837894Q31.12205525234375,37.80842905883789,31.10543235234375,38.13852905883789Q31.08880615234375,38.468729058837894,31.08880615234375,38.799229058837895Q31.08880615234375,39.12972905883789,31.10543235234375,39.459929058837886Q31.12205525234375,39.79002905883789,31.15526745234375,40.11892905883789Q31.18847635234375,40.44792905883789,31.23819415234375,40.774829058837895Q31.28790815234375,41.10182905883789,31.35400715234375,41.42602905883789Q31.42011015234375,41.75022905883789,31.50243615234375,42.07082905883789Q31.58476215234375,42.39152905883789,31.68311715234375,42.70772905883789Q31.78147215234375,43.02402905883789,31.89561815234375,43.335329058837885Q32.00976415234375,43.64652905883789,32.13942615234375,43.95182905883789Q32.26908615234375,44.25722905883789,32.41394615234375,44.55602905883789Q32.55881615234375,44.85482905883789,32.71853615234375,45.14632905883789Q32.87825615234375,45.437929058837895,33.05244615234375,45.721329058837895Q33.22662615234375,46.00492905883789,33.41486615234375,46.27972905883789Q33.60310615234375,46.554529058837886,33.80494615234375,46.82002905883789Q34.00677615234375,47.08552905883789,34.22172615234375,47.34102905883789Q34.43666615234375,47.59652905883789,34.66420615234375,47.84142905883789Q34.89174615234375,48.08642905883789,35.131326152343746,48.32012905883789Q35.37090615234375,48.55382905883789,35.62194615234375,48.775829058837886Q35.87302615234375,48.997829058837894,36.13492615234375,49.20752905883789Q36.39681615234375,49.41712905883789,36.66895615234375,49.614029058837886Q36.94114615234375,49.810929058837885,37.22282615234375,49.99462905883789Q37.50454615234375,50.178229058837886,37.79515615234375,50.34812905883789Q38.08580615234375,50.518129058837886,38.38459615234375,50.67392905883789Q38.68342615234375,50.82972905883789,38.989696152343754,50.971029058837885Q39.29599615234375,51.11242905883789,39.60903615234375,51.238829058837894Q39.922066152343746,51.36532905883789,40.24108615234375,51.47672905883789Q40.560096152343746,51.58802905883789,40.88434615234375,51.68402905883789Q41.20850615234375,51.779929058837894,41.53720615234375,51.86022905883789Q41.865906152343754,51.94062905883789,42.19820615234375,52.00502905883789Q42.53050615234375,52.06952905883789,42.86570615234375,52.11802905883789Q43.20080615234375,52.166529058837895,43.53800615234375,52.19892905883789Q43.87520615234375,52.231329058837886,44.21360615234375,52.24752905883789Q44.55200615234375,52.26372905883789,44.890906152343746,52.26372905883789ZM44.89080615234375,46.59452905883789Q45.08700615234375,46.59452905883789,45.28290615234375,46.58512905883789Q45.47880615234375,46.575729058837894,45.67400615234375,46.556929058837895Q45.86920615234375,46.53822905883789,46.06330615234375,46.51012905883789Q46.25730615234375,46.482029058837895,46.44970615234375,46.44472905883789Q46.64210615234375,46.40732905883789,46.83240615234375,46.36092905883789Q47.02260615234375,46.31432905883789,47.21040615234375,46.25882905883789Q47.39810615234375,46.203329058837895,47.58280615234375,46.13882905883789Q47.76740615234375,46.07432905883789,47.948706152343746,46.00112905883789Q48.12990615234375,45.92792905883789,48.30720615234375,45.846029058837885Q48.48460615234375,45.76422905883789,48.657606152343746,45.67402905883789Q48.83050615234375,45.58382905883789,48.99880615234375,45.485429058837894Q49.16710615234375,45.38702905883789,49.330106152343745,45.28072905883789Q49.49330615234375,45.17442905883789,49.65080615234375,45.06042905883789Q49.80840615234375,44.94642905883789,49.96000615234375,44.82502905883789Q50.11170615234375,44.70362905883789,50.25700615234375,44.57512905883789Q50.402306152343755,44.446629058837885,50.541006152343755,44.31132905883789Q50.679706152343755,44.17602905883789,50.81150615234375,44.034229058837894Q50.94320615234375,43.89242905883789,51.06760615234375,43.74452905883789Q51.192106152343754,43.59652905883789,51.30900615234375,43.44282905883789Q51.42580615234375,43.28912905883789,51.53480615234375,43.13002905883789Q51.64380615234375,42.97092905883789,51.74460615234375,42.80682905883789Q51.845506152343745,42.64262905883789,51.93790615234375,42.47392905883789Q52.03040615234375,42.30512905883789,52.11430615234375,42.13212905883789Q52.198106152343755,41.95912905883789,52.27320615234375,41.78232905883789Q52.34830615234375,41.60552905883789,52.41440615234375,41.42542905883789Q52.48040615234375,41.24522905883789,52.53740615234375,41.062029058837894Q52.59430615234375,40.87892905883789,52.642006152343754,40.69332905883789Q52.68960615234375,40.50772905883789,52.72790615234375,40.32002905883789Q52.76620615234375,40.13232905883789,52.795006152343745,39.943029058837894Q52.823706152343746,39.75372905883789,52.84290615234375,39.56322905883789Q52.862206152343745,39.372829058837894,52.87180615234375,39.18172905883789Q52.88140615234375,38.99062905883789,52.88140615234375,38.799229058837895Q52.88140615234375,38.60782905883789,52.87180615234375,38.41672905883789Q52.862206152343745,38.22552905883789,52.84290615234375,38.03512905883789Q52.823706152343746,37.84472905883789,52.795006152343745,37.65542905883789Q52.76620615234375,37.46612905883789,52.72790615234375,37.27842905883789Q52.68960615234375,37.090729058837894,52.642006152343754,36.905129058837886Q52.59430615234375,36.71952905883789,52.53740615234375,36.53632905883789Q52.48040615234375,36.35322905883789,52.41440615234375,36.17302905883789Q52.34830615234375,35.99282905883789,52.27320615234375,35.81612905883789Q52.198106152343755,35.63932905883789,52.11430615234375,35.46632905883789Q52.03040615234375,35.293319058837895,51.93790615234375,35.12455905883789Q51.845506152343745,34.95579905883789,51.74460615234375,34.79164905883789Q51.64380615234375,34.62750905883789,51.53480615234375,34.468369058837894Q51.42580615234375,34.30927905883789,51.30900615234375,34.155559058837895Q51.192106152343754,34.001879058837886,51.06760615234375,33.85395905883789Q50.94320615234375,33.70602905883789,50.81150615234375,33.56422905883789Q50.679706152343755,33.42241905883789,50.541006152343755,33.28711905883789Q50.402306152343755,33.15181905883789,50.25700615234375,33.02328905883789Q50.11170615234375,32.89480905883789,49.96000615234375,32.77339905883789Q49.80840615234375,32.65198905883789,49.65080615234375,32.53797905883789Q49.49330615234375,32.42399905883789,49.330106152343745,32.31767905883789Q49.16710615234375,32.21135905883789,48.99880615234375,32.11298905883789Q48.83050615234375,32.01457905883789,48.657606152343746,31.92438905883789Q48.48460615234375,31.83415905883789,48.30720615234375,31.75237905883789Q48.12990615234375,31.670549058837892,47.948706152343746,31.59733905883789Q47.76740615234375,31.52407905883789,47.58280615234375,31.45960905883789Q47.39810615234375,31.39514905883789,47.21040615234375,31.33960905883789Q47.02260615234375,31.28403905883789,46.83240615234375,31.23755905883789Q46.64210615234375,31.19103905883789,46.44970615234375,31.15369905883789Q46.25730615234375,31.11636905883789,46.06330615234375,31.08831905883789Q45.86920615234375,31.06021905883789,45.67400615234375,31.04148905883789Q45.47880615234375,31.02270905883789,45.28290615234375,31.01334905883789Q45.08700615234375,31.00393905883789,44.89080615234375,31.00393905883789Q44.69460615234375,31.00393905883789,44.49870615234375,31.01334905883789Q44.30280615234375,31.02270905883789,44.10750615234375,31.04148905883789Q43.91240615234375,31.06021905883789,43.71830615234375,31.08831905883789Q43.52430615234375,31.11636905883789,43.33190615234375,31.15369905883789Q43.13950615234375,31.19103905883789,42.94920615234375,31.23755905883789Q42.75890615234375,31.28403905883789,42.57120615234375,31.33960905883789Q42.38350615234375,31.39514905883789,42.19880615234375,31.45960905883789Q42.01410615234375,31.52407905883789,41.83290615234375,31.59733905883789Q41.65170615234375,31.670549058837892,41.47430615234375,31.75237905883789Q41.29700615234375,31.83415905883789,41.12400615234375,31.92438905883789Q40.95104615234375,32.01457905883789,40.782766152343754,32.11298905883789Q40.614536152343746,32.21135905883789,40.45144615234375,32.31767905883789Q40.28830615234375,32.42399905883789,40.13075615234375,32.53797905883789Q39.97320615234375,32.65198905883789,39.82159615234375,32.77339905883789Q39.66993615234375,32.89480905883789,39.52460615234375,33.02328905883789Q39.37923615234375,33.15181905883789,39.24055615234375,33.28711905883789Q39.10181615234375,33.42241905883789,38.97012615234375,33.56422905883789Q38.83838615234375,33.70602905883789,38.71394615234375,33.85395905883789Q38.58950615234375,34.001879058837886,38.47262615234375,34.155559058837895Q38.35579615234375,34.30927905883789,38.24679615234375,34.468369058837894Q38.13782615234375,34.62750905883789,38.03695615234375,34.79164905883789Q37.93613615234375,34.95579905883789,37.84365615234375,35.12455905883789Q37.75118615234375,35.293319058837895,37.66733615234375,35.46632905883789Q37.58343615234375,35.63932905883789,37.50837615234375,35.81612905883789Q37.43331615234375,35.99282905883789,37.36722615234375,36.17302905883789Q37.30113615234375,36.35322905883789,37.24419615234375,36.53632905883789Q37.18725615234375,36.71952905883789,37.13958615234375,36.905129058837886Q37.09196615234375,37.090729058837894,37.05366615234375,37.27842905883789Q37.01541615234375,37.46612905883789,36.98661615234375,37.65542905883789Q36.95785615234375,37.84472905883789,36.93863615234375,38.03512905883789Q36.91937615234375,38.22552905883789,36.90974615234375,38.41672905883789Q36.90011615234375,38.60782905883789,36.90011615234375,38.799229058837895Q36.90011615234375,38.99062905883789,36.90974615234375,39.18172905883789Q36.91937615234375,39.372829058837894,36.93863615234375,39.56322905883789Q36.95785615234375,39.75372905883789,36.98661615234375,39.943029058837894Q37.01541615234375,40.13232905883789,37.05366615234375,40.32002905883789Q37.09196615234375,40.50772905883789,37.13958615234375,40.69332905883789Q37.18725615234375,40.87892905883789,37.24419615234375,41.062029058837894Q37.30113615234375,41.24522905883789,37.36722615234375,41.42542905883789Q37.43331615234375,41.60552905883789,37.50837615234375,41.78232905883789Q37.58343615234375,41.95912905883789,37.66733615234375,42.13212905883789Q37.75118615234375,42.30512905883789,37.84365615234375,42.47392905883789Q37.93613615234375,42.64262905883789,38.03695615234375,42.80682905883789Q38.13782615234375,42.97092905883789,38.24679615234375,43.13002905883789Q38.35579615234375,43.28912905883789,38.47262615234375,43.44282905883789Q38.58950615234375,43.59652905883789,38.71394615234375,43.74452905883789Q38.83838615234375,43.89242905883789,38.97012615234375,44.034229058837894Q39.10181615234375,44.17602905883789,39.24055615234375,44.31132905883789Q39.37923615234375,44.446629058837885,39.52460615234375,44.57512905883789Q39.66993615234375,44.70362905883789,39.82159615234375,44.82502905883789Q39.97320615234375,44.94642905883789,40.13075615234375,45.06042905883789Q40.28830615234375,45.17442905883789,40.45144615234375,45.28072905883789Q40.614536152343746,45.38702905883789,40.782766152343754,45.485429058837894Q40.95104615234375,45.58382905883789,41.12400615234375,45.67402905883789Q41.29700615234375,45.76422905883789,41.47430615234375,45.846029058837885Q41.65170615234375,45.92792905883789,41.83290615234375,46.00112905883789Q42.01410615234375,46.07432905883789,42.19880615234375,46.13882905883789Q42.38350615234375,46.203329058837895,42.57120615234375,46.25882905883789Q42.75890615234375,46.31432905883789,42.94920615234375,46.36092905883789Q43.13950615234375,46.40732905883789,43.33190615234375,46.44472905883789Q43.52430615234375,46.482029058837895,43.71830615234375,46.51012905883789Q43.91240615234375,46.53822905883789,44.10760615234375,46.556929058837895Q44.30280615234375,46.575729058837894,44.49870615234375,46.58512905883789Q44.69460615234375,46.59452905883789,44.89080615234375,46.59452905883789Z" fill-rule="evenodd" fill="#333333" fill-opacity="1"/></g></g><g transform="matrix(0.9017147421836853,-0.4323313534259796,0.4499187767505646,0.8930695056915283,-18.84606346915075,27.25246933305789)"><g><path d="M49.9755859375,60.87028401123047L49.9755859375,55.03572401123047C49.9755859375,53.80368601123047,50.989565937500004,52.80492401123047,52.2403759375,52.80492401123047C53.4911859375,52.80492401123047,54.505145937500004,53.80368601123047,54.505145937500004,55.03572401123047L54.505145937500004,60.87028401123047C54.505145937500004,62.102284011230466,53.4911859375,63.101024011230464,52.2403759375,63.101024011230464C50.989565937500004,63.101024011230464,49.9755859375,62.102284011230466,49.9755859375,60.87028401123047Z" fill="#333333" fill-opacity="1"/></g></g><g><g><path d="M98.922621359375,4.074784677810669L98.922621359375,1.683043677810669L97.945068359375,1.683043677810669L97.945068359375,1.062964677810669L100.700368359375,1.062964677810669L100.700368359375,1.683043677810669L99.724238359375,1.683043677810669L99.724238359375,4.074784677810669L98.922621359375,4.074784677810669ZM100.935268359375,4.074784677810669L100.935268359375,1.062964677810669L101.602098359375,1.062964677810669L102.582488359375,2.797254677810669L103.562888359375,1.062964677810669L104.212698359375,1.062964677810669L104.212698359375,4.074784677810669L103.489098359375,4.074784677810669L103.489098359375,2.449834677810669L102.786788359375,3.630484677810669L102.351238359375,3.630484677810669L101.658848359375,2.467834677810669L101.658848359375,4.074784677810669L100.935268359375,4.074784677810669Z" fill="#333333" fill-opacity="1"/></g></g><g><g><path d="M49.97554439453125,35.96465645263672Q49.97554439453125,36.01684645263672,49.97291439453125,36.06897645263672Q49.97029439453125,36.12110645263672,49.96505439453125,36.17304645263672Q49.95980439453125,36.22498645263672,49.95195439453125,36.27660645263672Q49.94410439453125,36.328236452636716,49.93367439453125,36.37942645263672Q49.92323439453125,36.43060645263672,49.91023439453125,36.48123645263672Q49.89723439453125,36.53185645263672,49.88170439453125,36.58180645263672Q49.86617439453125,36.63174645263672,49.84815439453125,36.68088645263672Q49.83012439453125,36.73002645263672,49.80965439453125,36.77824645263672Q49.78918439453125,36.82645645263672,49.76631439453125,36.87363645263672Q49.74343439453125,36.92081645263672,49.71822439453125,36.966846452636716Q49.69299439453125,37.01287645263672,49.66549439453125,37.05763645263672Q49.63799439453125,37.10239645263672,49.60827439453125,37.145796452636716Q49.57855439453125,37.18919645263672,49.54667439453125,37.231106452636716Q49.51481439453125,37.27302645263672,49.48087439453125,37.31337645263672Q49.44693439453125,37.35371645263672,49.41101439453125,37.39238645263672Q49.37508439453125,37.43105645263672,49.33725439453125,37.467966452636716Q49.29942439453125,37.50486645263672,49.25978439453125,37.53991645263672Q49.220144394531246,37.574966452636716,49.17879439453125,37.60806645263672Q49.13743439453125,37.64117645263672,49.09446439453125,37.67226645263672Q49.05149439453125,37.70335645263672,49.007014394531254,37.73235645263672Q48.96252439453125,37.761346452636715,48.91664439453125,37.78818645263672Q48.87075439453125,37.81501645263672,48.82357439453125,37.83961645263672Q48.77639439453125,37.86421645263672,48.72803439453125,37.886526452636716Q48.67967439453125,37.908846452636716,48.63024439453125,37.92881645263672Q48.58081439453125,37.94878645263672,48.53045439453125,37.966376452636716Q48.48007439453125,37.98395645263672,48.42888439453125,37.99910645263672Q48.37768439453125,38.014256452636715,48.32579439453125,38.02693645263672Q48.27389439453125,38.03961645263672,48.22143439453125,38.049806452636716Q48.16896439453125,38.05997645263672,48.11603439453125,38.06763645263672Q48.06312439453125,38.07529645263672,48.00987439453125,38.08041645263672Q47.95663439453125,38.08552645263672,47.90321439453125,38.088086452636716Q47.84977439453125,38.09064645263672,47.79627439453125,38.09064645263672Q47.74277439453125,38.09064645263672,47.68934439453125,38.088086452636716Q47.63590439453125,38.08552645263672,47.58266439453125,38.08041645263672Q47.52942439453125,38.07529645263672,47.47650439453125,38.06763645263672Q47.42359439453125,38.05997645263672,47.37111439453125,38.049806452636716Q47.31865439453125,38.03961645263672,47.26675439453125,38.02693645263672Q47.21485439453125,38.014256452636715,47.16366439453125,37.99910645263672Q47.11247439453125,37.98395645263672,47.06210439453125,37.966376452636716Q47.01173439453125,37.94878645263672,46.96230439453125,37.92881645263672Q46.91287439453125,37.908846452636716,46.86451439453125,37.886526452636716Q46.81615439453125,37.86421645263672,46.76897439453125,37.83961645263672Q46.72179439453125,37.81501645263672,46.67590439453125,37.78818645263672Q46.63001439453125,37.761346452636715,46.58553639453125,37.73235645263672Q46.54105539453125,37.70335645263672,46.49808739453125,37.67226645263672Q46.45511339453125,37.64117645263672,46.41376239453125,37.60806645263672Q46.37240739453125,37.574966452636716,46.33276439453125,37.53991645263672Q46.29312439453125,37.50486645263672,46.25529639453125,37.467966452636716Q46.21746739453125,37.43105645263672,46.18154139453125,37.39238645263672Q46.14561539453125,37.35371645263672,46.11167539453125,37.31337645263672Q46.07773839453125,37.27302645263672,46.04586839453125,37.231106452636716Q46.01400139453125,37.18919645263672,45.98427739453125,37.145796452636716Q45.95455439453125,37.10239645263672,45.92705239453125,37.05763645263672Q45.89954939453125,37.01287645263672,45.87432839453125,36.966846452636716Q45.84911039453125,36.92081645263672,45.82623839453125,36.87363645263672Q45.80336539453125,36.82645645263672,45.78289139453125,36.77824645263672Q45.76242039453125,36.73002645263672,45.74439539453125,36.68088645263672Q45.72637339453125,36.63174645263672,45.71084399453125,36.58180645263672Q45.69531479453125,36.53185645263672,45.68231499453125,36.48123645263672Q45.66931529453125,36.43060645263672,45.65887859453125,36.37942645263672Q45.64844189453125,36.328236452636716,45.64059179453125,36.27660645263672Q45.63274159453125,36.22498645263672,45.62749809453125,36.17304645263672Q45.62225460453125,36.12110645263672,45.61962782453125,36.06897645263672Q45.61700439453125,36.01684645263672,45.61700439453125,35.96465645263672Q45.61700439453125,35.91246645263672,45.61962782453125,35.86034645263672Q45.62225460453125,35.80821645263672,45.62749809453125,35.75627645263672Q45.63274159453125,35.70433645263672,45.64059179453125,35.65271645263672Q45.64844189453125,35.60108645263672,45.65887859453125,35.54990645263672Q45.66931529453125,35.49871645263672,45.68231499453125,35.448086452636716Q45.69531479453125,35.39746645263672,45.71084399453125,35.34752645263672Q45.72637339453125,35.29758645263672,45.74439539453125,35.24843645263672Q45.76242039453125,35.199296452636716,45.78289139453125,35.15108645263672Q45.80336539453125,35.10286645263672,45.82623839453125,35.05568645263672Q45.84911039453125,35.008506452636716,45.87432839453125,34.96247645263672Q45.89954939453125,34.916456452636716,45.92705239453125,34.871686452636716Q45.95455439453125,34.82692045263672,45.98427739453125,34.78352745263672Q46.01400139453125,34.74013345263672,46.04586839453125,34.69821145263672Q46.07773839453125,34.65629445263672,46.11167539453125,34.61594945263672Q46.14561539453125,34.57560545263672,46.18154139453125,34.53693845263672Q46.21746739453125,34.49826745263672,46.25529639453125,34.461361452636716Q46.29312439453125,34.42445645263672,46.33276439453125,34.38941245263672Q46.37240739453125,34.35436145263672,46.41376239453125,34.32125345263672Q46.45511339453125,34.28814545263672,46.49808739453125,34.25705345263672Q46.54105539453125,34.22596445263672,46.58553639453125,34.19696945263672Q46.63001439453125,34.167973452636716,46.67590439453125,34.14114245263672Q46.72179439453125,34.11431145263672,46.76897439453125,34.089710452636716Q46.81615439453125,34.06510645263672,46.86451439453125,34.04279445263672Q46.91287439453125,34.020481452636716,46.96230439453125,34.00050745263672Q47.01173439453125,33.98053645263672,47.06210439453125,33.96295345263672Q47.11247439453125,33.94537145263672,47.16366439453125,33.93022135263672Q47.21485439453125,33.91507125263672,47.26675439453125,33.90239025263672Q47.31865439453125,33.88970915263672,47.37111439453125,33.87952745263672Q47.42359439453125,33.86934575263672,47.47650439453125,33.861686852636716Q47.52942439453125,33.85402785263672,47.58266439453125,33.84891525263672Q47.63590439453125,33.843799182636715,47.68934439453125,33.84123614263672Q47.74277439453125,33.83867645263672,47.79627439453125,33.83867645263672Q47.84977439453125,33.83867645263672,47.90321439453125,33.84123614263672Q47.95663439453125,33.843799182636715,48.00987439453125,33.84891525263672Q48.06312439453125,33.85402785263672,48.11603439453125,33.861686852636716Q48.16896439453125,33.86934575263672,48.22143439453125,33.87952745263672Q48.27389439453125,33.88970915263672,48.32579439453125,33.90239025263672Q48.37768439453125,33.91507125263672,48.42888439453125,33.93022135263672Q48.48007439453125,33.94537145263672,48.53045439453125,33.96295345263672Q48.58081439453125,33.98053645263672,48.63024439453125,34.00050745263672Q48.67967439453125,34.020481452636716,48.72803439453125,34.04279445263672Q48.77639439453125,34.06510645263672,48.82357439453125,34.089710452636716Q48.87075439453125,34.11431145263672,48.91664439453125,34.14114245263672Q48.96252439453125,34.167973452636716,49.007014394531254,34.19696945263672Q49.05149439453125,34.22596445263672,49.09446439453125,34.25705345263672Q49.13743439453125,34.28814545263672,49.17879439453125,34.32125345263672Q49.220144394531246,34.35436145263672,49.25978439453125,34.38941245263672Q49.29942439453125,34.42445645263672,49.33725439453125,34.461361452636716Q49.37508439453125,34.49826745263672,49.41101439453125,34.53693845263672Q49.44693439453125,34.57560545263672,49.48086439453125,34.61594945263672Q49.51481439453125,34.65629445263672,49.54667439453125,34.69821145263672Q49.57855439453125,34.74013345263672,49.60827439453125,34.78352745263672Q49.63799439453125,34.82692045263672,49.66549439453125,34.871686452636716Q49.69299439453125,34.916456452636716,49.71822439453125,34.96247645263672Q49.74343439453125,35.008506452636716,49.76631439453125,35.05568645263672Q49.78918439453125,35.10286645263672,49.80965439453125,35.15108645263672Q49.83012439453125,35.199296452636716,49.84815439453125,35.24843645263672Q49.86617439453125,35.29758645263672,49.88170439453125,35.34752645263672Q49.89723439453125,35.39746645263672,49.91023439453125,35.448086452636716Q49.92323439453125,35.49871645263672,49.93367439453125,35.54990645263672Q49.94410439453125,35.60108645263672,49.95195439453125,35.65271645263672Q49.95980439453125,35.70433645263672,49.96505439453125,35.75627645263672Q49.97029439453125,35.80821645263672,49.97291439453125,35.86034645263672Q49.97554439453125,35.91246645263672,49.97554439453125,35.96465645263672Z" fill="#333333" fill-opacity="1"/></g></g></g></g></svg>