<svg xmlns="http://www.w3.org/2000/svg" xmlns:xlink="http://www.w3.org/1999/xlink" fill="none" version="1.1" width="104.2127685546875" height="62" viewBox="0 0 104.2127685546875 62"><defs><clipPath id="master_svg0_1_1819"><rect x="0" y="0" width="104.2127685546875" height="62" rx="0"/></clipPath></defs><g clip-path="url(#master_svg0_1_1819)"><g><g><g><path d="M2.7056479454040527,21.0827L6.122107945404053,0L11.733457945404053,0L9.081707945404052,16.7422L18.62594794540405,16.7422L17.900947945404052,21.0827L2.7056479454040527,21.0827ZM20.532847945404054,21.0827L23.919447945404052,0L39.114747945404055,0L38.439447945404055,3.8755L28.58734794540405,3.8755L27.941747945404053,8.5261L37.09864794540405,8.5261L36.39354794540405,12.4016L27.246547945404053,12.4016L26.54144794540405,17.2072L36.36374794540405,17.2072L35.69834794540405,21.0827L20.532847945404054,21.0827ZM50.58594794540405,21.3927Q47.566347945404054,21.3927,45.18294794540405,20.3076Q42.809347945404056,19.2128,41.44874794540405,17.1006Q40.098047945404055,14.9788,40.098047945404055,11.8881Q40.098047945404055,8.53577,41.53804794540405,5.84229Q42.98814794540405,3.14884,45.808647945404054,1.57926Q48.63924794540405,0,52.721147945404056,0Q55.194147945404055,0,57.14074794540405,0.668523Q59.09704794540405,1.33705,60.11014794540405,2.29623L58.00484794540405,6.55929Q55.501947945404055,4.96062,52.452947945404055,4.96062Q50.28774794540405,4.96062,48.83764794540405,5.9392Q47.387847945404054,6.90808,46.63304794540405,8.49704Q45.88814794540405,10.0763,45.88814794540405,11.9365Q45.88814794540405,14.5816,47.36804794540405,15.8217Q48.84774794540405,17.0522,51.439847945404054,17.0522Q52.721147945404056,17.0522,54.25054794540405,16.684L54.796647945404054,13.1767L50.49624794540405,13.1767L51.07224794540405,9.30119L59.980947945404054,9.30119L58.243147945404054,19.9394Q56.56474794540405,20.7146,54.51874794540405,21.0536Q52.48284794540405,21.3927,50.58594794540405,21.3927ZM59.22634794540405,21.0827L72.71334794540405,0L77.16284794540405,0L83.78714794540406,21.0827L78.41374794540405,21.0827L77.28194794540406,16.7422L67.60864794540406,16.7422L65.04594794540405,21.0827L59.22634794540405,21.0827ZM74.26244794540405,6.04579L70.14094794540405,12.8666L76.15934794540405,12.8666L74.32224794540406,6.04579L74.26244794540405,6.04579ZM85.33624794540405,21.0827L88.75284794540406,0L94.36404794540405,0L91.71254794540405,16.7422L101.25664794540405,16.7422L100.53154794540406,21.0827L85.33624794540405,21.0827Z" fill="#000000" fill-opacity="1"/></g></g><g><g><path d="M0,50.84646456909179L3.90453,26.751964569091797L8.61492,26.751964569091797L17.5704,41.246364569091796L19.8745,26.751964569091797L25.8334,26.751964569091797L21.9289,50.84646456909179L17.2185,50.84646456909179L8.29714,36.60680456909179L5.95895,50.84646456909179L0,50.84646456909179Z" fill="#000000" fill-opacity="1"/></g></g><g><g><path d="M67.75264605957031,50.84655092773437L63.01008605957031,27.755950927734375L68.96006605957031,27.755950927734375L71.5271260595703,42.37855092773437L79.18478605957031,27.755950927734375L83.59018605957031,27.755950927734375L86.26598605957031,42.50585092773437L93.74968605957031,27.755950927734375L100.00428605957032,27.755950927734375L87.76708605957032,50.84655092773437L82.86138605957031,50.84655092773437L80.05498605957031,37.136500927734374L72.66924605957031,50.84655092773437L67.75264605957031,50.84655092773437Z" fill="#000000" fill-opacity="1"/></g></g><g><g><path d="M44.890898522949215,52.26372905883789Q45.22969852294922,52.26372905883789,45.56809852294922,52.24752905883789Q45.90649852294922,52.231329058837886,46.24369852294922,52.19892905883789Q46.58089852294922,52.166529058837895,46.91599852294922,52.11802905883789Q47.251198522949224,52.06952905883789,47.58349852294922,52.00502905883789Q47.91579852294922,51.94062905883789,48.24439852294922,51.86022905883789Q48.57309852294922,51.779929058837894,48.89739852294922,51.68402905883789Q49.22159852294922,51.58802905883789,49.54059852294922,51.47672905883789Q49.85959852294922,51.36532905883789,50.172598522949215,51.238829058837894Q50.48569852294922,51.11242905883789,50.791998522949214,50.971029058837885Q51.09819852294922,50.82972905883789,51.39709852294922,50.67392905883789Q51.69589852294922,50.518129058837886,51.98649852294922,50.34812905883789Q52.27709852294922,50.178229058837886,52.55879852294922,49.99462905883789Q52.84059852294922,49.810929058837885,53.112698522949216,49.614029058837886Q53.384898522949214,49.41712905883789,53.64669852294922,49.20752905883789Q53.90869852294922,48.997829058837894,54.15969852294922,48.775829058837886Q54.41079852294922,48.55382905883789,54.65039852294922,48.32012905883789Q54.88999852294922,48.08642905883789,55.11749852294922,47.84142905883789Q55.34499852294922,47.59652905883789,55.559998522949215,47.34102905883789Q55.774898522949215,47.08552905883789,55.976798522949224,46.82002905883789Q56.178598522949216,46.554529058837886,56.36679852294922,46.27972905883789Q56.55499852294922,46.00492905883789,56.72929852294922,45.721329058837895Q56.90339852294922,45.437929058837895,57.06319852294922,45.14632905883789Q57.22289852294922,44.85482905883789,57.36769852294922,44.55602905883789Q57.51259852294922,44.25722905883789,57.64229852294922,43.95182905883789Q57.771898522949215,43.64652905883789,57.88609852294922,43.335329058837885Q58.00019852294922,43.02402905883789,58.09859852294922,42.70772905883789Q58.19689852294922,42.39152905883789,58.279198522949216,42.07082905883789Q58.36159852294922,41.75022905883789,58.427698522949214,41.42602905883789Q58.49379852294922,41.10182905883789,58.54349852294922,40.774829058837895Q58.59319852294922,40.44792905883789,58.626398522949216,40.11892905883789Q58.65969852294922,39.79002905883789,58.67629852294922,39.459929058837886Q58.69289852294922,39.12972905883789,58.69289852294922,38.799229058837895Q58.69289852294922,38.468729058837894,58.67629852294922,38.13852905883789Q58.65969852294922,37.80842905883789,58.626398522949216,37.479429058837894Q58.59319852294922,37.15052905883789,58.54349852294922,36.82352905883789Q58.49379852294922,36.49652905883789,58.427698522949214,36.17242905883789Q58.36159852294922,35.84822905883789,58.279198522949216,35.52752905883789Q58.19689852294922,35.20696905883789,58.09859852294922,34.89062905883789Q58.00019852294922,34.57433905883789,57.88609852294922,34.26311905883789Q57.771898522949215,33.95192905883789,57.64229852294922,33.64653905883789Q57.51259852294922,33.34115905883789,57.36769852294922,33.04236905883789Q57.22289852294922,32.74353905883789,57.06319852294922,32.45204905883789Q56.90339852294922,32.16051905883789,56.72929852294922,31.87703905883789Q56.55499852294922,31.593509058837892,56.36679852294922,31.31867905883789Q56.178598522949216,31.04385905883789,55.976798522949224,30.778359058837893Q55.774898522949215,30.51285905883789,55.559998522949215,30.25738905883789Q55.34499852294922,30.00186905883789,55.11749852294922,29.75694905883789Q54.88999852294922,29.512039058837892,54.65039852294922,29.27830905883789Q54.41079852294922,29.04458905883789,54.15969852294922,28.82260905883789Q53.90869852294922,28.600639058837892,53.64669852294922,28.39094905883789Q53.384898522949214,28.18125905883789,53.112698522949216,27.98435905883789Q52.84059852294922,27.78745905883789,52.55879852294922,27.603819058837892Q52.27709852294922,27.420179058837892,51.98649852294922,27.25024905883789Q51.69589852294922,27.08032905883789,51.39709852294922,26.92450905883789Q51.09819852294922,26.76868905883789,50.791998522949214,26.62736905883789Q50.48569852294922,26.486049058837892,50.172598522949215,26.359559058837892Q49.85959852294922,26.233066058837892,49.54059852294922,26.12171305883789Q49.22159852294922,26.01035805883789,48.89739852294922,25.91440905883789Q48.57309852294922,25.81845705883789,48.244498522949215,25.73814605883789Q47.91579852294922,25.65783105883789,47.58349852294922,25.593347058837892Q47.251198522949224,25.528863058837892,46.91599852294922,25.48036405883789Q46.58089852294922,25.43186365883789,46.24369852294922,25.39946495883789Q45.90649852294922,25.367066358837892,45.56809852294922,25.35084765883789Q45.22969852294922,25.33462905883789,44.890898522949215,25.33462905883789Q44.55199852294922,25.33462905883789,44.21359852294922,25.35084765883789Q43.87519852294922,25.367066358837892,43.537998522949216,25.39946495883789Q43.20079852294922,25.43186365883789,42.86569852294922,25.48036405883789Q42.530498522949216,25.528863058837892,42.19819852294922,25.593347058837892Q41.86589852294922,25.65783105883789,41.53719852294922,25.73814605883789Q41.20849852294922,25.81845705883789,40.88433852294922,25.91440905883789Q40.560088522949215,26.01035805883789,40.241078522949216,26.12171305883789Q39.922058522949214,26.233066058837892,39.60902852294922,26.359559058837892Q39.295988522949216,26.486049058837892,38.98968852294922,26.62736905883789Q38.68341852294922,26.76868905883789,38.384588522949215,26.92450905883789Q38.08579852294922,27.08032905883789,37.79514852294922,27.25024905883789Q37.50453852294922,27.420179058837892,37.22281852294922,27.603819058837892Q36.94113852294922,27.78745905883789,36.66894852294922,27.98435905883789Q36.39680852294922,28.18125905883789,36.13491852294922,28.39094905883789Q35.873018522949216,28.600639058837892,35.62193852294922,28.82260905883789Q35.37089852294922,29.04458905883789,35.131318522949215,29.27830905883789Q34.89173852294922,29.512039058837892,34.66419852294922,29.75694905883789Q34.436658522949216,30.00186905883789,34.22171852294922,30.25738905883789Q34.006768522949216,30.51285905883789,33.80493852294922,30.778359058837893Q33.60309852294922,31.04385905883789,33.41485852294922,31.31867905883789Q33.22661852294922,31.593509058837892,33.05243852294922,31.87703905883789Q32.87824852294922,32.16051905883789,32.71852852294922,32.45204905883789Q32.55880852294922,32.74353905883789,32.413938522949216,33.04236905883789Q32.26907852294922,33.34115905883789,32.13941852294922,33.64653905883789Q32.00975652294922,33.95192905883789,31.89561052294922,34.26311905883789Q31.781464522949218,34.57433905883789,31.68310952294922,34.89062905883789Q31.58475452294922,35.20696905883789,31.50242852294922,35.52752905883789Q31.420102522949218,35.84822905883789,31.35399952294922,36.17242905883789Q31.28790052294922,36.49652905883789,31.238186522949217,36.82352905883789Q31.188468722949217,37.15052905883789,31.15525982294922,37.479429058837894Q31.122047622949218,37.80842905883789,31.10542472294922,38.13852905883789Q31.08879852294922,38.468729058837894,31.08879852294922,38.799229058837895Q31.08879852294922,39.12972905883789,31.10542472294922,39.459929058837886Q31.122047622949218,39.79002905883789,31.15525982294922,40.11892905883789Q31.188468722949217,40.44792905883789,31.238186522949217,40.774829058837895Q31.28790052294922,41.10182905883789,31.35399952294922,41.42602905883789Q31.420102522949218,41.75022905883789,31.50242852294922,42.07082905883789Q31.58475452294922,42.39152905883789,31.68310952294922,42.70772905883789Q31.781464522949218,43.02402905883789,31.89561052294922,43.335329058837885Q32.00975652294922,43.64652905883789,32.13941852294922,43.95182905883789Q32.26907852294922,44.25722905883789,32.413938522949216,44.55602905883789Q32.55880852294922,44.85482905883789,32.71852852294922,45.14632905883789Q32.87824852294922,45.437929058837895,33.05243852294922,45.721329058837895Q33.22661852294922,46.00492905883789,33.41485852294922,46.27972905883789Q33.60309852294922,46.554529058837886,33.80493852294922,46.82002905883789Q34.006768522949216,47.08552905883789,34.22171852294922,47.34102905883789Q34.436658522949216,47.59652905883789,34.66419852294922,47.84142905883789Q34.89173852294922,48.08642905883789,35.131318522949215,48.32012905883789Q35.37089852294922,48.55382905883789,35.62193852294922,48.775829058837886Q35.873018522949216,48.997829058837894,36.13491852294922,49.20752905883789Q36.39680852294922,49.41712905883789,36.66894852294922,49.614029058837886Q36.94113852294922,49.810929058837885,37.22281852294922,49.99462905883789Q37.50453852294922,50.178229058837886,37.79514852294922,50.34812905883789Q38.08579852294922,50.518129058837886,38.384588522949215,50.67392905883789Q38.68341852294922,50.82972905883789,38.98968852294922,50.971029058837885Q39.295988522949216,51.11242905883789,39.60902852294922,51.238829058837894Q39.922058522949214,51.36532905883789,40.241078522949216,51.47672905883789Q40.560088522949215,51.58802905883789,40.88433852294922,51.68402905883789Q41.20849852294922,51.779929058837894,41.53719852294922,51.86022905883789Q41.86589852294922,51.94062905883789,42.19819852294922,52.00502905883789Q42.530498522949216,52.06952905883789,42.86569852294922,52.11802905883789Q43.20079852294922,52.166529058837895,43.537998522949216,52.19892905883789Q43.87519852294922,52.231329058837886,44.21359852294922,52.24752905883789Q44.55199852294922,52.26372905883789,44.890898522949215,52.26372905883789ZM44.89079852294922,46.59452905883789Q45.086998522949216,46.59452905883789,45.28289852294922,46.58512905883789Q45.47879852294922,46.575729058837894,45.67399852294922,46.556929058837895Q45.86919852294922,46.53822905883789,46.06329852294922,46.51012905883789Q46.25729852294922,46.482029058837895,46.44969852294922,46.44472905883789Q46.64209852294922,46.40732905883789,46.83239852294922,46.36092905883789Q47.02259852294922,46.31432905883789,47.21039852294922,46.25882905883789Q47.39809852294922,46.203329058837895,47.58279852294922,46.13882905883789Q47.76739852294922,46.07432905883789,47.948698522949215,46.00112905883789Q48.12989852294922,45.92792905883789,48.30719852294922,45.846029058837885Q48.48459852294922,45.76422905883789,48.657598522949215,45.67402905883789Q48.83049852294922,45.58382905883789,48.998798522949215,45.485429058837894Q49.16709852294922,45.38702905883789,49.330098522949214,45.28072905883789Q49.49329852294922,45.17442905883789,49.650798522949216,45.06042905883789Q49.80839852294922,44.94642905883789,49.95999852294922,44.82502905883789Q50.11169852294922,44.70362905883789,50.25699852294922,44.57512905883789Q50.40229852294922,44.446629058837885,50.540998522949224,44.31132905883789Q50.679698522949224,44.17602905883789,50.81149852294922,44.034229058837894Q50.94319852294922,43.89242905883789,51.06759852294922,43.74452905883789Q51.19209852294922,43.59652905883789,51.30899852294922,43.44282905883789Q51.42579852294922,43.28912905883789,51.53479852294922,43.13002905883789Q51.64379852294922,42.97092905883789,51.74459852294922,42.80682905883789Q51.845498522949214,42.64262905883789,51.93789852294922,42.47392905883789Q52.03039852294922,42.30512905883789,52.11429852294922,42.13212905883789Q52.19809852294922,41.95912905883789,52.273198522949215,41.78232905883789Q52.34829852294922,41.60552905883789,52.41439852294922,41.42542905883789Q52.480398522949216,41.24522905883789,52.53739852294922,41.062029058837894Q52.59429852294922,40.87892905883789,52.64199852294922,40.69332905883789Q52.68959852294922,40.50772905883789,52.72789852294922,40.32002905883789Q52.76619852294922,40.13232905883789,52.794998522949214,39.943029058837894Q52.823698522949215,39.75372905883789,52.84289852294922,39.56322905883789Q52.862198522949214,39.372829058837894,52.87179852294922,39.18172905883789Q52.88139852294922,38.99062905883789,52.88139852294922,38.799229058837895Q52.88139852294922,38.60782905883789,52.87179852294922,38.41672905883789Q52.862198522949214,38.22552905883789,52.84289852294922,38.03512905883789Q52.823698522949215,37.84472905883789,52.794998522949214,37.65542905883789Q52.76619852294922,37.46612905883789,52.72789852294922,37.27842905883789Q52.68959852294922,37.090729058837894,52.64199852294922,36.905129058837886Q52.59429852294922,36.71952905883789,52.53739852294922,36.53632905883789Q52.480398522949216,36.35322905883789,52.41439852294922,36.17302905883789Q52.34829852294922,35.99282905883789,52.273198522949215,35.81612905883789Q52.19809852294922,35.63932905883789,52.11429852294922,35.46632905883789Q52.03039852294922,35.293319058837895,51.93789852294922,35.12455905883789Q51.845498522949214,34.95579905883789,51.74459852294922,34.79164905883789Q51.64379852294922,34.62750905883789,51.53479852294922,34.468369058837894Q51.42579852294922,34.30927905883789,51.30899852294922,34.155559058837895Q51.19209852294922,34.001879058837886,51.06759852294922,33.85395905883789Q50.94319852294922,33.70602905883789,50.81149852294922,33.56422905883789Q50.679698522949224,33.42241905883789,50.540998522949224,33.28711905883789Q50.40229852294922,33.15181905883789,50.25699852294922,33.02328905883789Q50.11169852294922,32.89480905883789,49.95999852294922,32.77339905883789Q49.80839852294922,32.65198905883789,49.650798522949216,32.53797905883789Q49.49329852294922,32.42399905883789,49.330098522949214,32.31767905883789Q49.16709852294922,32.21135905883789,48.998798522949215,32.11298905883789Q48.83049852294922,32.01457905883789,48.657598522949215,31.92438905883789Q48.48459852294922,31.83415905883789,48.30719852294922,31.75237905883789Q48.12989852294922,31.670549058837892,47.948698522949215,31.59733905883789Q47.76739852294922,31.52407905883789,47.58279852294922,31.45960905883789Q47.39809852294922,31.39514905883789,47.21039852294922,31.33960905883789Q47.02259852294922,31.28403905883789,46.83239852294922,31.23755905883789Q46.64209852294922,31.19103905883789,46.44969852294922,31.15369905883789Q46.25729852294922,31.11636905883789,46.06329852294922,31.08831905883789Q45.86919852294922,31.06021905883789,45.67399852294922,31.04148905883789Q45.47879852294922,31.02270905883789,45.28289852294922,31.01334905883789Q45.086998522949216,31.00393905883789,44.89079852294922,31.00393905883789Q44.69459852294922,31.00393905883789,44.49869852294922,31.01334905883789Q44.30279852294922,31.02270905883789,44.10749852294922,31.04148905883789Q43.91239852294922,31.06021905883789,43.71829852294922,31.08831905883789Q43.524298522949216,31.11636905883789,43.33189852294922,31.15369905883789Q43.13949852294922,31.19103905883789,42.94919852294922,31.23755905883789Q42.75889852294922,31.28403905883789,42.57119852294922,31.33960905883789Q42.38349852294922,31.39514905883789,42.19879852294922,31.45960905883789Q42.01409852294922,31.52407905883789,41.83289852294922,31.59733905883789Q41.65169852294922,31.670549058837892,41.47429852294922,31.75237905883789Q41.29699852294922,31.83415905883789,41.12399852294922,31.92438905883789Q40.95103852294922,32.01457905883789,40.78275852294922,32.11298905883789Q40.614528522949215,32.21135905883789,40.45143852294922,32.31767905883789Q40.28829852294922,32.42399905883789,40.13074852294922,32.53797905883789Q39.97319852294922,32.65198905883789,39.82158852294922,32.77339905883789Q39.66992852294922,32.89480905883789,39.52459852294922,33.02328905883789Q39.37922852294922,33.15181905883789,39.24054852294922,33.28711905883789Q39.10180852294922,33.42241905883789,38.97011852294922,33.56422905883789Q38.83837852294922,33.70602905883789,38.71393852294922,33.85395905883789Q38.58949852294922,34.001879058837886,38.47261852294922,34.155559058837895Q38.35578852294922,34.30927905883789,38.24678852294922,34.468369058837894Q38.13781852294922,34.62750905883789,38.03694852294922,34.79164905883789Q37.93612852294922,34.95579905883789,37.843648522949216,35.12455905883789Q37.75117852294922,35.293319058837895,37.66732852294922,35.46632905883789Q37.58342852294922,35.63932905883789,37.50836852294922,35.81612905883789Q37.43330852294922,35.99282905883789,37.367218522949216,36.17302905883789Q37.30112852294922,36.35322905883789,37.244188522949216,36.53632905883789Q37.18724852294922,36.71952905883789,37.13957852294922,36.905129058837886Q37.09195852294922,37.090729058837894,37.05365852294922,37.27842905883789Q37.015408522949215,37.46612905883789,36.98660852294922,37.65542905883789Q36.95784852294922,37.84472905883789,36.938628522949216,38.03512905883789Q36.91936852294922,38.22552905883789,36.90973852294922,38.41672905883789Q36.90010852294922,38.60782905883789,36.90010852294922,38.799229058837895Q36.90010852294922,38.99062905883789,36.90973852294922,39.18172905883789Q36.91936852294922,39.372829058837894,36.938628522949216,39.56322905883789Q36.95784852294922,39.75372905883789,36.98660852294922,39.943029058837894Q37.015408522949215,40.13232905883789,37.05365852294922,40.32002905883789Q37.09195852294922,40.50772905883789,37.13957852294922,40.69332905883789Q37.18724852294922,40.87892905883789,37.244188522949216,41.062029058837894Q37.30112852294922,41.24522905883789,37.367218522949216,41.42542905883789Q37.43330852294922,41.60552905883789,37.50836852294922,41.78232905883789Q37.58342852294922,41.95912905883789,37.66732852294922,42.13212905883789Q37.75117852294922,42.30512905883789,37.843648522949216,42.47392905883789Q37.93612852294922,42.64262905883789,38.03694852294922,42.80682905883789Q38.13781852294922,42.97092905883789,38.24678852294922,43.13002905883789Q38.35578852294922,43.28912905883789,38.47261852294922,43.44282905883789Q38.58949852294922,43.59652905883789,38.71393852294922,43.74452905883789Q38.83837852294922,43.89242905883789,38.97011852294922,44.034229058837894Q39.10180852294922,44.17602905883789,39.24054852294922,44.31132905883789Q39.37922852294922,44.446629058837885,39.52459852294922,44.57512905883789Q39.66992852294922,44.70362905883789,39.82158852294922,44.82502905883789Q39.97319852294922,44.94642905883789,40.13074852294922,45.06042905883789Q40.28829852294922,45.17442905883789,40.45143852294922,45.28072905883789Q40.614528522949215,45.38702905883789,40.78275852294922,45.485429058837894Q40.95103852294922,45.58382905883789,41.12399852294922,45.67402905883789Q41.29699852294922,45.76422905883789,41.47429852294922,45.846029058837885Q41.65169852294922,45.92792905883789,41.83289852294922,46.00112905883789Q42.01409852294922,46.07432905883789,42.19879852294922,46.13882905883789Q42.38349852294922,46.203329058837895,42.57119852294922,46.25882905883789Q42.75889852294922,46.31432905883789,42.94919852294922,46.36092905883789Q43.13949852294922,46.40732905883789,43.33189852294922,46.44472905883789Q43.524298522949216,46.482029058837895,43.71829852294922,46.51012905883789Q43.91239852294922,46.53822905883789,44.10759852294922,46.556929058837895Q44.30279852294922,46.575729058837894,44.49869852294922,46.58512905883789Q44.69459852294922,46.59452905883789,44.89079852294922,46.59452905883789Z" fill-rule="evenodd" fill="#200BFF" fill-opacity="1"/></g></g><g transform="matrix(0.9017147421836853,-0.4323313534259796,0.4499187767505646,0.8930695056915283,-18.846063094222245,27.25247098227112)"><g><path d="M49.975589752197266,60.87028401123047L49.975589752197266,55.03572401123047C49.975589752197266,53.80368601123047,50.98956975219727,52.80492401123047,52.24037975219726,52.80492401123047C53.491189752197265,52.80492401123047,54.50514975219727,53.80368601123047,54.50514975219727,55.03572401123047L54.50514975219727,60.87028401123047C54.50514975219727,62.102284011230466,53.491189752197265,63.101024011230464,52.24037975219726,63.101024011230464C50.98956975219727,63.101024011230464,49.975589752197266,62.102284011230466,49.975589752197266,60.87028401123047Z" fill="#200BFF" fill-opacity="1"/></g></g><g><g><path d="M98.922621359375,4.074784677810669L98.922621359375,1.683043677810669L97.945068359375,1.683043677810669L97.945068359375,1.062964677810669L100.700368359375,1.062964677810669L100.700368359375,1.683043677810669L99.724238359375,1.683043677810669L99.724238359375,4.074784677810669L98.922621359375,4.074784677810669ZM100.935268359375,4.074784677810669L100.935268359375,1.062964677810669L101.602098359375,1.062964677810669L102.582488359375,2.797254677810669L103.562888359375,1.062964677810669L104.212698359375,1.062964677810669L104.212698359375,4.074784677810669L103.489098359375,4.074784677810669L103.489098359375,2.449834677810669L102.786788359375,3.630484677810669L102.351238359375,3.630484677810669L101.658848359375,2.467834677810669L101.658848359375,4.074784677810669L100.935268359375,4.074784677810669Z" fill="#000000" fill-opacity="1"/></g></g><g><g><path d="M49.97551387695312,35.96465645263672Q49.97551387695312,36.01684645263672,49.97288387695313,36.06897645263672Q49.970263876953126,36.12110645263672,49.965023876953126,36.17304645263672Q49.95977387695312,36.22498645263672,49.951923876953124,36.27660645263672Q49.94407387695313,36.328236452636716,49.93364387695313,36.37942645263672Q49.923203876953124,36.43060645263672,49.910203876953126,36.48123645263672Q49.89720387695313,36.53185645263672,49.88167387695312,36.58180645263672Q49.866143876953124,36.63174645263672,49.848123876953125,36.68088645263672Q49.83009387695313,36.73002645263672,49.809623876953125,36.77824645263672Q49.78915387695312,36.82645645263672,49.766283876953125,36.87363645263672Q49.743403876953124,36.92081645263672,49.71819387695312,36.966846452636716Q49.69296387695312,37.01287645263672,49.665463876953126,37.05763645263672Q49.63796387695312,37.10239645263672,49.608243876953125,37.145796452636716Q49.57852387695313,37.18919645263672,49.54664387695313,37.231106452636716Q49.514783876953125,37.27302645263672,49.480843876953124,37.31337645263672Q49.44690387695312,37.35371645263672,49.410983876953125,37.39238645263672Q49.375053876953125,37.43105645263672,49.337223876953125,37.467966452636716Q49.299393876953125,37.50486645263672,49.25975387695313,37.53991645263672Q49.22011387695312,37.574966452636716,49.17876387695313,37.60806645263672Q49.13740387695312,37.64117645263672,49.094433876953126,37.67226645263672Q49.05146387695312,37.70335645263672,49.00698387695313,37.73235645263672Q48.962493876953125,37.761346452636715,48.91661387695312,37.78818645263672Q48.87072387695312,37.81501645263672,48.823543876953124,37.83961645263672Q48.77636387695313,37.86421645263672,48.728003876953125,37.886526452636716Q48.67964387695312,37.908846452636716,48.63021387695313,37.92881645263672Q48.58078387695313,37.94878645263672,48.53042387695312,37.966376452636716Q48.480043876953125,37.98395645263672,48.42885387695313,37.99910645263672Q48.377653876953126,38.014256452636715,48.325763876953125,38.02693645263672Q48.27386387695312,38.03961645263672,48.221403876953126,38.049806452636716Q48.168933876953126,38.05997645263672,48.11600387695312,38.06763645263672Q48.063093876953126,38.07529645263672,48.00984387695313,38.08041645263672Q47.956603876953125,38.08552645263672,47.90318387695312,38.088086452636716Q47.84974387695313,38.09064645263672,47.79624387695313,38.09064645263672Q47.74274387695313,38.09064645263672,47.68931387695312,38.088086452636716Q47.63587387695313,38.08552645263672,47.582633876953125,38.08041645263672Q47.52939387695312,38.07529645263672,47.47647387695312,38.06763645263672Q47.423563876953125,38.05997645263672,47.37108387695312,38.049806452636716Q47.318623876953126,38.03961645263672,47.26672387695312,38.02693645263672Q47.214823876953126,38.014256452636715,47.16363387695313,37.99910645263672Q47.11244387695312,37.98395645263672,47.06207387695312,37.966376452636716Q47.01170387695313,37.94878645263672,46.96227387695313,37.92881645263672Q46.912843876953126,37.908846452636716,46.86448387695312,37.886526452636716Q46.81612387695313,37.86421645263672,46.768943876953124,37.83961645263672Q46.721763876953126,37.81501645263672,46.675873876953126,37.78818645263672Q46.629983876953126,37.761346452636715,46.58550587695313,37.73235645263672Q46.541024876953124,37.70335645263672,46.49805687695312,37.67226645263672Q46.45508287695313,37.64117645263672,46.41373187695312,37.60806645263672Q46.372376876953126,37.574966452636716,46.33273387695313,37.53991645263672Q46.29309387695312,37.50486645263672,46.255265876953125,37.467966452636716Q46.21743687695312,37.43105645263672,46.181510876953126,37.39238645263672Q46.14558487695312,37.35371645263672,46.11164487695312,37.31337645263672Q46.07770787695313,37.27302645263672,46.04583787695312,37.231106452636716Q46.013970876953124,37.18919645263672,45.98424687695312,37.145796452636716Q45.954523876953125,37.10239645263672,45.92702187695313,37.05763645263672Q45.899518876953124,37.01287645263672,45.87429787695312,36.966846452636716Q45.84907987695313,36.92081645263672,45.82620787695313,36.87363645263672Q45.80333487695312,36.82645645263672,45.78286087695312,36.77824645263672Q45.76238987695312,36.73002645263672,45.74436487695313,36.68088645263672Q45.726342876953126,36.63174645263672,45.71081347695313,36.58180645263672Q45.695284276953124,36.53185645263672,45.68228447695312,36.48123645263672Q45.66928477695313,36.43060645263672,45.65884807695313,36.37942645263672Q45.64841137695313,36.328236452636716,45.64056127695312,36.27660645263672Q45.63271107695312,36.22498645263672,45.62746757695312,36.17304645263672Q45.622224086953125,36.12110645263672,45.619597306953125,36.06897645263672Q45.616973876953125,36.01684645263672,45.616973876953125,35.96465645263672Q45.616973876953125,35.91246645263672,45.619597306953125,35.86034645263672Q45.622224086953125,35.80821645263672,45.62746757695312,35.75627645263672Q45.63271107695312,35.70433645263672,45.64056127695312,35.65271645263672Q45.64841137695313,35.60108645263672,45.65884807695313,35.54990645263672Q45.66928477695313,35.49871645263672,45.68228447695312,35.448086452636716Q45.695284276953124,35.39746645263672,45.71081347695313,35.34752645263672Q45.726342876953126,35.29758645263672,45.74436487695313,35.24843645263672Q45.76238987695312,35.199296452636716,45.78286087695312,35.15108645263672Q45.80333487695312,35.10286645263672,45.82620787695313,35.05568645263672Q45.84907987695313,35.008506452636716,45.87429787695312,34.96247645263672Q45.899518876953124,34.916456452636716,45.92702187695313,34.871686452636716Q45.954523876953125,34.82692045263672,45.98424687695312,34.78352745263672Q46.013970876953124,34.74013345263672,46.04583787695312,34.69821145263672Q46.07770787695313,34.65629445263672,46.11164487695312,34.61594945263672Q46.14558487695312,34.57560545263672,46.181510876953126,34.53693845263672Q46.21743687695312,34.49826745263672,46.255265876953125,34.461361452636716Q46.29309387695312,34.42445645263672,46.33273387695313,34.38941245263672Q46.372376876953126,34.35436145263672,46.41373187695312,34.32125345263672Q46.45508287695313,34.28814545263672,46.49805687695312,34.25705345263672Q46.541024876953124,34.22596445263672,46.58550587695313,34.19696945263672Q46.629983876953126,34.167973452636716,46.675873876953126,34.14114245263672Q46.721763876953126,34.11431145263672,46.768943876953124,34.089710452636716Q46.81612387695313,34.06510645263672,46.86448387695312,34.04279445263672Q46.912843876953126,34.020481452636716,46.96227387695313,34.00050745263672Q47.01170387695313,33.98053645263672,47.06207387695312,33.96295345263672Q47.11244387695312,33.94537145263672,47.16363387695313,33.93022135263672Q47.214823876953126,33.91507125263672,47.26672387695312,33.90239025263672Q47.318623876953126,33.88970915263672,47.37108387695312,33.87952745263672Q47.423563876953125,33.86934575263672,47.47647387695312,33.861686852636716Q47.52939387695312,33.85402785263672,47.582633876953125,33.84891525263672Q47.63587387695313,33.843799182636715,47.68931387695312,33.84123614263672Q47.74274387695313,33.83867645263672,47.79624387695313,33.83867645263672Q47.84974387695313,33.83867645263672,47.90318387695312,33.84123614263672Q47.956603876953125,33.843799182636715,48.00984387695313,33.84891525263672Q48.063093876953126,33.85402785263672,48.11600387695312,33.861686852636716Q48.168933876953126,33.86934575263672,48.221403876953126,33.87952745263672Q48.27386387695312,33.88970915263672,48.325763876953125,33.90239025263672Q48.377653876953126,33.91507125263672,48.42885387695313,33.93022135263672Q48.480043876953125,33.94537145263672,48.53042387695312,33.96295345263672Q48.58078387695313,33.98053645263672,48.63021387695313,34.00050745263672Q48.67964387695312,34.020481452636716,48.728003876953125,34.04279445263672Q48.77636387695313,34.06510645263672,48.823543876953124,34.089710452636716Q48.87072387695312,34.11431145263672,48.91661387695312,34.14114245263672Q48.962493876953125,34.167973452636716,49.00698387695313,34.19696945263672Q49.05146387695312,34.22596445263672,49.094433876953126,34.25705345263672Q49.13740387695312,34.28814545263672,49.17876387695313,34.32125345263672Q49.22011387695312,34.35436145263672,49.25975387695313,34.38941245263672Q49.299393876953125,34.42445645263672,49.337223876953125,34.461361452636716Q49.375053876953125,34.49826745263672,49.410983876953125,34.53693845263672Q49.44690387695312,34.57560545263672,49.48083387695313,34.61594945263672Q49.514783876953125,34.65629445263672,49.54664387695313,34.69821145263672Q49.57852387695313,34.74013345263672,49.608243876953125,34.78352745263672Q49.63796387695312,34.82692045263672,49.665463876953126,34.871686452636716Q49.69296387695312,34.916456452636716,49.71819387695312,34.96247645263672Q49.743403876953124,35.008506452636716,49.766283876953125,35.05568645263672Q49.78915387695312,35.10286645263672,49.809623876953125,35.15108645263672Q49.83009387695313,35.199296452636716,49.848123876953125,35.24843645263672Q49.866143876953124,35.29758645263672,49.88167387695312,35.34752645263672Q49.89720387695313,35.39746645263672,49.910203876953126,35.448086452636716Q49.923203876953124,35.49871645263672,49.93364387695313,35.54990645263672Q49.94407387695313,35.60108645263672,49.951923876953124,35.65271645263672Q49.95977387695312,35.70433645263672,49.965023876953126,35.75627645263672Q49.970263876953126,35.80821645263672,49.97288387695313,35.86034645263672Q49.97551387695312,35.91246645263672,49.97551387695312,35.96465645263672Z" fill="#200BFF" fill-opacity="1"/></g></g></g></g></svg>