<svg width="145" height="38" viewBox="0 0 145 38" fill="none" xmlns="http://www.w3.org/2000/svg">
<g opacity="0.8" clip-path="url(#clip0_902_326)">
<path fill-rule="evenodd" clip-rule="evenodd" d="M1.74187 29.4519H6.65941V25.9681H3.50152V3.51928H21.886C26.8628 3.51928 30.3406 6.298 32.3017 10.1609C33.3915 12.3662 34.0396 14.7633 34.2094 17.2173C34.4102 19.7213 34.1532 22.2409 33.4511 24.6529C32.0884 29.2031 29.0016 32.9297 24.2618 33.7591C22.4303 33.9839 20.5827 34.0493 18.7399 33.9547C17.7506 33.9191 16.7257 33.9191 16.2339 33.9191L16.2337 37.4206H18.6866C20.7455 37.5301 22.81 37.4508 24.8543 37.1836C31.1049 36.0994 35.0804 31.3774 36.7986 25.6364C37.6387 22.8186 37.956 19.8708 37.7347 16.9388C37.5277 14.0232 36.7549 11.1756 35.4595 8.55531C32.9298 3.55484 28.4387 0 21.9215 0H0V29.4519H1.74187ZM21.015 8.06356H8.57309L8.55531 11.5888H8.57309V25.9504H8.55531V29.4401H8.57309V33.9487L0.189581 33.9014L0.201431 37.3911L10.3268 37.4266L12.0746 37.4088V29.4501C15.8212 29.4573 19.381 29.4509 20.1737 29.4104H20.3514L20.3653 29.4098C22.7886 29.2966 29.523 28.9824 29.523 18.9295C29.4992 8.65603 21.0446 8.06356 21.015 8.06356ZM12.0746 25.9504H19.996H20.1797C21.7201 25.8792 26.0393 25.6778 26.0274 18.9592C26.0274 12.4004 21.4357 11.6598 20.8195 11.5888H12.0746V25.9504Z" fill="#01020C"/>
<path fill-rule="evenodd" clip-rule="evenodd" d="M144.51 23.9362V17.0043C144.53 16.2797 144.394 15.5593 144.113 14.8913C143.833 14.2231 143.412 13.6225 142.881 13.1294C142.35 12.6218 141.724 12.2238 141.038 11.9585C140.353 11.6932 139.623 11.5656 138.888 11.5831H130.001C128.517 11.549 127.081 12.1052 126.007 13.1294C125.476 13.6225 125.056 14.2231 124.775 14.8913C124.495 15.5593 124.359 16.2797 124.378 17.0043V23.9362C124.358 24.6608 124.494 25.3812 124.774 26.0494C125.055 26.7176 125.476 27.3181 126.007 27.8109C127.081 28.8352 128.517 29.3913 130.001 29.3573H138.888C139.623 29.3749 140.353 29.2473 141.038 28.9819C141.724 28.7166 142.35 28.3187 142.881 27.8109C143.413 27.3181 143.833 26.7176 144.113 26.0494C144.395 25.3812 144.53 24.6608 144.51 23.9362ZM141.204 23.9362C141.204 25.3759 140.268 26.0572 138.888 26.0572H130.001C128.62 26.0572 127.684 25.3759 127.684 23.9362V17.0102C127.684 15.5705 128.62 14.8891 130.001 14.8891H138.888C140.268 14.8891 141.204 15.5705 141.204 17.0102V23.9362Z" fill="#01020C"/>
<path fill-rule="evenodd" clip-rule="evenodd" d="M100.412 11.5593V14.8653H113.939C115.313 14.8653 116.184 15.5762 116.184 16.9863V23.9064C116.184 25.3165 115.313 26.0275 113.939 26.0275H103.748V18.5623H100.442V29.3335H113.939C114.669 29.3518 115.397 29.2245 116.079 28.9591C116.76 28.6936 117.382 28.2952 117.908 27.7871C118.436 27.2923 118.852 26.691 119.13 26.0229C119.408 25.355 119.541 24.6355 119.52 23.9124V16.9805C119.541 16.2573 119.408 15.5379 119.13 14.8699C118.852 14.2019 118.436 13.6005 117.908 13.1056C117.382 12.5976 116.76 12.1992 116.079 11.9338C115.397 11.6683 114.669 11.5411 113.939 11.5593H100.412Z" fill="#01020C"/>
<path fill-rule="evenodd" clip-rule="evenodd" d="M95.5244 29.3333V16.8321C95.5536 15.4597 95.0725 14.1253 94.1734 13.0877C93.749 12.5888 93.2176 12.1922 92.6186 11.9275C92.0195 11.6628 91.3683 11.5369 90.7136 11.5591H80.4224C79.7742 11.5393 79.1298 11.6665 78.5378 11.9312C77.9457 12.196 77.4213 12.5913 77.0038 13.0877C76.101 14.1233 75.6172 15.4586 75.6471 16.8321V29.3333H78.959V16.8914C78.959 15.9256 79.2908 14.9125 80.4224 14.9125H90.7136C91.8576 14.9125 92.2189 15.9019 92.2189 16.8914V20.0908H82.81V23.3967H92.2189V29.3333H95.5244Z" fill="#01020C"/>
<path fill-rule="evenodd" clip-rule="evenodd" d="M50.4255 11.5591V14.8473C56.3504 14.8473 60.0533 14.8473 65.9662 14.8473C67.2814 14.8473 67.471 16.3818 67.471 17.383C67.471 18.3844 67.2696 19.8774 65.9662 19.8774H50.4255V29.3333H53.7316V23.2249H65.9484C66.645 23.2466 67.3359 23.0924 67.9572 22.7766C68.5786 22.4608 69.1103 21.9934 69.5032 21.4178C70.3721 20.2713 70.8236 18.8625 70.783 17.4245C70.8181 15.97 70.3656 14.5455 69.4973 13.3779C69.1037 12.812 68.5753 12.3532 67.9598 12.0428C67.3443 11.7325 66.6611 11.5805 65.9721 11.6005L50.4255 11.5591Z" fill="#01020C"/>
</g>
<defs>
<clipPath id="clip0_902_326">
<rect width="144.512" height="37.5" fill="white"/>
</clipPath>
</defs>
</svg>
