<svg xmlns="http://www.w3.org/2000/svg" xmlns:xlink="http://www.w3.org/1999/xlink" fill="none" version="1.1" width="74" height="35.79499435424805" viewBox="0 0 74 35.79499435424805"><defs><clipPath id="master_svg0_1_1752"><rect x="0" y="0" width="74" height="35.79499435424805" rx="0"/></clipPath></defs><g clip-path="url(#master_svg0_1_1752)"><g><path d="M11.4666,35.7823C9.74151,35.7823,8.2194,35.6935,6.90024,35.5033C5.58108,35.313,4.38875,35.0086,3.32328,34.59C2.24511,34.1714,1.14158,33.6767,0,33.0806L0,27.3726C1.34453,28.4508,2.9808,29.326,4.90881,30.0237C6.82413,30.7213,8.89167,31.0638,11.1114,31.0638C13.3312,31.0638,14.8533,30.6198,15.9061,29.7446C16.9589,28.8694,17.4916,27.639,17.4916,26.0915C17.4916,24.8738,17.0984,23.9098,16.3246,23.1615C15.5509,22.4131,14.5108,21.7916,13.2424,21.2715C11.9613,20.7515,10.5914,20.2314,9.14535,19.7113C8.04182,19.2928,6.95097,18.8488,5.87281,18.3922C4.79465,17.9229,3.83065,17.3394,2.96812,16.6291C2.10559,15.9188,1.40795,15.0055,0.887897,13.902C0.367842,12.7984,0.114157,11.4285,0.114157,9.80494C0.114157,8.66335,0.342474,7.50908,0.786423,6.32945C1.23037,5.14981,1.91532,4.09702,2.84127,3.13301C3.76723,2.16901,4.97223,1.42064,6.46897,0.849846C7.9784,0.279053,9.77957,0,11.8978,0C13.2804,0,14.4854,0.0887895,15.5002,0.253686C16.5149,0.431265,17.4916,0.697636,18.4049,1.05279C19.3181,1.40795,20.3202,1.8519,21.3857,2.37196L21.3857,7.9784C20.5231,7.4203,19.6479,6.90024,18.76,6.41824C17.8721,5.93624,16.9208,5.54302,15.8807,5.22592C14.8406,4.9215,13.6863,4.74392,12.4052,4.70586C10.9465,4.66781,9.7542,4.84539,8.82825,5.22592C7.88961,5.60645,7.17929,6.13918,6.69729,6.83682C6.21529,7.53445,5.97429,8.32088,5.97429,9.22146C5.97429,10.4391,6.27871,11.3905,6.88755,12.1008C7.4964,12.8111,8.34624,13.3946,9.46246,13.8639C10.566,14.3332,11.8471,14.7899,13.3058,15.2338C14.5869,15.6524,15.83,16.1217,17.0477,16.6418C18.2527,17.1618,19.3308,17.796,20.2695,18.5317C21.2081,19.2801,21.9565,20.206,22.5272,21.3096C23.098,22.4131,23.3898,23.783,23.3898,25.4066C23.3898,27.2077,22.9839,28.8948,22.1721,30.4676C21.3603,32.0405,20.0792,33.3216,18.3288,34.3109C16.5783,35.3003,14.3078,35.795,11.5046,35.795L11.4666,35.7823Z" fill="#000000" fill-opacity="1"/></g><g><path d="M39.95543957946777,35.6301310546875C38.052799579467774,35.6301310546875,36.30236957946777,35.4017310546875,34.69146957946777,34.9324310546875C33.08056957946777,34.4631310546875,31.621869579467774,33.9050310546875,30.302709579467773,33.2454310546875L30.302709579467773,28.0068310546875C31.58381957946777,28.7044310546875,32.979089579467775,29.3260310546875,34.48851957946778,29.8968310546875C35.997939579467776,30.4676310546875,37.659579579467774,30.7466310546875,39.49879957946777,30.7466310546875C42.12440957946777,30.7466310546875,44.15390957946777,30.2773310546875,45.574609579467776,29.3260310546875C46.99520957946777,28.3747310546875,47.70550957946777,27.0048310546875,47.70550957946777,25.2036310546875C47.70550957946777,23.4024310546875,47.020609579467774,21.9437310546875,45.65070957946777,20.9163310546875C44.28080957946777,19.9016310546875,42.16250957946777,19.3815310546875,39.29584957946777,19.3815310546875L34.983209579467776,19.3815310546875L34.983209579467776,14.6630310546875L39.44806957946777,14.6630310546875C41.629809579467775,14.6630310546875,43.26600957946778,14.2444310546875,44.356909579467775,13.3945310546875C45.44770957946777,12.5447310546875,45.99310957946777,11.3777310546875,45.99310957946777,9.8937210546875C45.99310957946777,8.7901910546875,45.714109579467774,7.8769210546875,45.143309579467775,7.1666010546875C44.57250957946778,6.4562810546875,43.74800957946778,5.9235410546875,42.68250957946778,5.5810710546875C41.60440957946777,5.2385910546875,40.34860957946778,5.0610110546875,38.88995957946777,5.0610110546875C37.431269579467774,5.0610110546875,36.13747957946777,5.2259110546875,34.89441957946777,5.5557010546875C33.65135957946777,5.8854910546875,32.382939579467774,6.3548110546875,31.101826579467772,6.9890210546875L31.101826579467772,2.1055810546875C32.24340957946777,1.5474710546875,33.52451957946777,1.0781530546875,34.94515957946777,0.6976240546875C36.365799579467776,0.3170970546875,37.86253957946777,0.1268310546875,39.460759579467776,0.1268310546875C41.36340957946777,0.1268310546875,43.050409579467775,0.3551480546875,44.52180957946777,0.8244640546875C45.99310957946777,1.2937810546875,47.23620957946777,1.9533610546875,48.26360957946777,2.8032110546875C49.27840957946778,3.6530510546875,50.052109579467775,4.6424310546875,50.54680957946778,5.7840110546875C51.04150957946777,6.9255910546875,51.29520957946777,8.1686510546875,51.29520957946777,9.5258710546875C51.29520957946777,10.6674310546875,51.09220957946778,11.6695310546875,50.69900957946777,12.5320310546875C50.30580957946778,13.3945310546875,49.82380957946778,14.1175310546875,49.24030957946778,14.6883310546875C48.66950957946777,15.2591310546875,48.13680957946777,15.6904310546875,47.629409579467776,15.9821310546875C47.134709579467774,16.2739310546875,46.779609579467774,16.4388310546875,46.563909579467776,16.4768310546875C46.86840957946777,16.5402310546875,47.36300957946777,16.7812310546875,48.048009579467774,17.1745310546875C48.720309579467774,17.5677310546875,49.44330957946777,18.1385310546875,50.204309579467775,18.8615310546875C50.965409579467774,19.5845310546875,51.61230957946778,20.4977310546875,52.15770957946778,21.5886310546875C52.69040957946777,22.6794310546875,52.95680957946777,23.9479310546875,52.95680957946777,25.4065310546875C52.95680957946777,26.8652310546875,52.67770957946777,28.2605310546875,52.10700957946777,29.5036310546875C51.53620957946777,30.7466310546875,50.69900957946777,31.8248310546875,49.59550957946777,32.7507310546875C48.49190957946777,33.6767310546875,47.134709579467774,34.3743310546875,45.52380957946777,34.8817310546875C43.91290957946777,35.3891310546875,42.073709579467774,35.6301310546875,39.99349957946777,35.6301310546875L39.95543957946777,35.6301310546875Z" fill="#000000" fill-opacity="1"/></g><g><path d="M68.29206591796876,35.21154857177734L68.29206591796876,6.304078571777343L61.44256591796875,10.515258571777343L61.44256591796875,4.807338571777343L68.39354591796875,0.6088485717773438L73.99996591796875,0.6088485717773438L73.99996591796875,35.224248571777345L68.29206591796876,35.224248571777345L68.29206591796876,35.21154857177734Z" fill="#000000" fill-opacity="1"/></g></g></svg>