<svg xmlns="http://www.w3.org/2000/svg" xmlns:xlink="http://www.w3.org/1999/xlink" fill="none" version="1.1" width="109.9537582397461" height="75" viewBox="0 0 109.9537582397461 75"><defs><clipPath id="master_svg0_1_3790"><rect x="0" y="0" width="109.9537582397461" height="75" rx="0"/></clipPath></defs><g clip-path="url(#master_svg0_1_3790)"><g><g><g><g><path d="M81.083873046875,26.49074812011719C81.083873046875,41.05549812011719,69.27627304687499,52.86319812011719,54.711373046874996,52.86319812011719C53.417373046875,52.86319812011719,52.146673046875,52.76999812011719,50.904273046875005,52.59089812011719C49.934173046875,52.44979812011719,48.981273046875,52.25739812011719,48.047873046875,52.01439812011719C40.349073046875,50.010298120117184,34.018903046874996,44.61619812011719,30.747763046875,37.520598120117185C30.319933046875,36.59349812011719,29.945763046875,35.636998120117184,29.625539046875,34.65559812011719C29.322590046875,33.722158120117186,29.068872046875,32.76568812011719,28.869873046875,31.79059812011719L53.777873046875,31.79059812011719L53.777873046875,39.20709812011719L54.711373046874996,37.96339812011719L62.242273046875,27.92195812011719L41.510573046875,27.92195812011719L42.308873046875,26.77641812011719L42.882873046875,26.012388120117187L43.581973046875,25.081538120117187L67.895073046875,25.081538120117187L67.11277304687499,26.20377812011719L66.53877304687501,26.967828120117186L65.822373046875,27.92195812011719L54.711373046874996,42.738298120117186L50.912873046875,47.802698120117185L50.912873046875,34.65559812011719L32.659963046875,34.65559812011719C33.025493046875,35.642998120117184,33.455953046875,36.59949812011719,33.946633046875,37.520598120117185C36.881563046875,43.033898120117186,41.948373046875,47.24079812011719,48.047873046875,49.04019812011719C49.604173046875005,49.49889812011719,51.226873046875,49.80179812011718,52.899973046875004,49.929398120117185C53.497173046875005,49.97469812011719,54.101773046874996,49.99799812011719,54.711373046874996,49.99799812011719C67.69407304687499,49.99799812011719,78.218773046875,39.47339812011719,78.218773046875,26.49074812011719C78.218773046875,26.017358120117187,78.203873046875,25.54761812011719,78.17697304687499,25.081538120117187C78.156273046875,24.736712120117186,78.127973046875,24.396056120117187,78.093673046875,24.056198120117188L80.973573046875,24.056198120117188C81.004273046875,24.396056120117187,81.029873046875,24.738023120117187,81.047173046875,25.081538120117187C81.071573046875,25.54761812011719,81.083873046875,26.017358120117187,81.083873046875,26.49074812011719Z" fill="#333333" fill-opacity="1"/></g></g><g><g><path d="M29.03092677734375,31.92146430419922C29.22075977734375,32.82296430419922,29.46217277734375,33.728404304199216,29.75019677734375,34.61522430419922C30.069106777343748,35.59272430419922,30.44458677734375,36.551824304199215,30.86692677734375,37.46582430419922C34.17628677734375,44.64492430419922,40.45039677734375,49.901524304199214,48.08089677734375,51.88782430419921C49.007496777343746,52.12902430419922,49.96349677734375,52.32202430419922,50.92309677734375,52.461524304199216C52.17029677734375,52.641124304199224,53.44489677734375,52.73232430419922,54.71139677734375,52.73232430419922C69.18099677734375,52.73232430419922,80.95289677734375,40.96032430419922,80.95289677734375,26.49069430419922C80.95289677734375,26.02358430419922,80.94059677734376,25.55149430419922,80.91659677734376,25.08830430419922C80.90189677734375,24.80342630419922,80.88149677734376,24.50754930419922,80.85369677734374,24.18706130419922L78.23819677734375,24.18706130419922C78.26749677734375,24.494189304199217,78.29029677734374,24.78562330419922,78.30759677734375,25.073634304199217C78.33559677734375,25.552024304199218,78.34949677734375,26.02882430419922,78.34949677734375,26.49069430419922C78.34949677734375,39.52492430419922,67.74539677734376,50.12912430419922,54.71139677734375,50.12912430419922C54.106796777343746,50.12912430419922,53.493796777343746,50.10582430419922,52.889996777343754,50.059924304199214C51.23859677734375,49.93402430419922,49.597196777343754,49.633424304199224,48.01069677734375,49.16582430419922C41.96989677734375,47.38372430419922,36.80146677734375,43.161824304199214,33.83092677734375,37.58242430419922C33.33605677734375,36.65312430419922,32.90087677734375,35.68382430419922,32.53744677734375,34.70112430419922C32.52252677734375,34.66082430419922,32.52802677734375,34.616024304199215,32.55263677734375,34.580924304199215C32.57724677734375,34.54562430419922,32.61704677734375,34.52462430419922,32.65999677734375,34.52462430419922L50.91289677734375,34.52462430419922C50.98539677734375,34.52462430419922,51.04379677734375,34.583324304199216,51.04379677734375,34.65552430419922L51.04379677734375,47.40992430419922L67.00799677734375,26.12517430419922L67.64459677734375,25.212414304199218L43.64749677734375,25.212414304199218L42.41339677734375,26.85518430419922L41.76119677734375,27.791254304199217L62.24229677734375,27.791254304199217C62.29179677734375,27.791254304199217,62.33709677734375,27.81926430419922,62.35939677734375,27.863514304199217C62.38159677734375,27.90802430419922,62.37689677734375,27.961184304199218,62.34709677734375,28.00071430419922L53.882896777343745,39.28592430419922C53.848896777343754,39.330924304199215,53.79049677734375,39.350024304199216,53.73659677734375,39.33142430419922C53.68319677734375,39.31362430419922,53.647296777343755,39.26362430419922,53.647296777343755,39.20732430419922L53.647296777343755,31.92146430419922L29.03092677734375,31.92146430419922ZM54.71139677734375,52.99412430419922C53.43229677734375,52.99412430419922,52.14509677734375,52.90222430419922,50.88569677734375,52.72072430419922C49.91659677734375,52.579624304199214,48.95069677734375,52.38482430419921,48.01489677734375,52.141324304199216C40.30829677734375,50.13512430419922,33.97153677734375,44.82612430419922,30.62917677734375,37.57552430419922C30.20291677734375,36.65212430419922,29.82324677734375,35.68352430419922,29.50119177734375,34.69642430419922C29.19352777734375,33.74855430419922,28.93823577734375,32.77949430419922,28.74185765734375,31.81672430419922C28.73400286734375,31.77824430419922,28.74369550734375,31.73817430419922,28.76857037734375,31.70779430419922C28.79370087734375,31.67717430419922,28.83062557734375,31.65962430419922,28.87016277734375,31.65962430419922L53.77819677734375,31.65962430419922C53.85049677734375,31.65962430419922,53.90909677734375,31.71828430419922,53.90909677734375,31.79054430419922L53.90909677734375,38.81482430419922L61.98049677734375,28.053084304199217L41.510296777343754,28.053084304199217C41.46159677734375,28.053084304199217,41.41689677734375,28.02611430419922,41.39429677734375,27.98291430419922C41.37179677734375,27.93944430419922,41.375196777343746,27.887334304199218,41.40299677734375,27.84728430419922L42.20159677734375,26.70147430419922L43.47749677734375,25.00293430419922C43.50209677734375,24.96995430419922,43.54089677734375,24.950584304199218,43.58199677734375,24.950584304199218L67.89539677734375,24.950584304199218C67.94409677734376,24.950584304199218,67.98889677734374,24.97754430419922,68.01139677734375,25.02101430419922C68.03389677734376,25.06420430419922,68.03049677734376,25.116324304199217,68.00279677734375,25.15637430419922L67.22009677734374,26.27860430419922L51.01789677734375,47.88122430419922C50.98389677734375,47.92622430419922,50.92519677734375,47.944824304199216,50.87149677734375,47.926824304199215C50.818096777343754,47.90902430419922,50.78199677734375,47.85892430419922,50.78199677734375,47.80262430419922L50.78199677734375,34.78652430419922L32.84903677734375,34.78652430419922C33.19465677734375,35.69792430419922,33.60260677734375,36.596324304199214,34.06212677734375,37.45932430419922C36.99993677734375,42.97702430419922,42.11069677734375,47.15222430419922,48.08509677734375,48.91472430419922C49.65349677734375,49.377124304199214,51.27689677734375,49.674524304199224,52.90989677734375,49.79892430419922C53.50719677734375,49.844224304199216,54.11309677734375,49.86722430419922,54.71139677734375,49.86722430419922C67.60139677734375,49.86722430419922,78.08769677734375,39.380624304199216,78.08769677734375,26.49069430419922C78.08769677734375,26.03379430419922,78.07379677734374,25.56223430419922,78.04629677734374,25.089094304199218C78.02669677734374,24.76021330419922,77.99939677734375,24.42638030419922,77.96349677734375,24.069231304199217C77.95959677734375,24.03257030419922,77.97169677734375,23.995653704199217,77.99659677734374,23.96816600419922C78.02139677734375,23.94093390419922,78.05649677734375,23.92522430419922,78.09369677734375,23.92522430419922L80.97359677734374,23.92522430419922C81.04139677734375,23.92522430419922,81.09799677734375,23.97679580419922,81.10399677734375,24.04436430419922C81.13749677734376,24.414602304199217,81.16159677734376,24.75183930419922,81.17789677734375,25.074944304199217C81.20249677734375,25.54259430419922,81.21479677734375,26.01913430419922,81.21479677734375,26.49069430419922C81.21479677734375,41.10482430419922,69.32549677734374,52.99412430419922,54.71139677734375,52.99412430419922Z" fill="#333333" fill-opacity="1"/></g></g><g><g><path d="M28.265350341796875,26.503553924560546C28.265350341796875,11.938553924560546,40.07285034179687,0.13105392456054688,54.63785034179688,0.13105392456054688C55.931850341796874,0.13105392456054688,57.20255034179688,0.22427262456054686,58.444950341796876,0.4033589245605469C59.41505034179687,0.5442339245605469,60.367850341796874,0.7369359245605469,61.301350341796876,0.9799309245605469C69.00015034179688,2.983773924560547,75.33025034179687,8.378133924560547,78.60145034179688,15.473653924560546C79.02925034179688,16.400853924560547,79.40345034179688,17.357353924560545,79.72365034179688,18.338653924560546C80.02655034179688,19.271853924560546,80.28035034179688,20.228653924560547,80.47935034179687,21.203653924560548L55.571250341796876,21.203653924560548L55.571250341796876,13.787153924560547L54.63785034179688,15.030653924560546L47.10685034179687,25.072053924560546L67.83865034179688,25.072053924560546L67.04025034179688,26.217653924560548L66.46635034179687,26.981953924560546L65.76725034179688,27.912753924560548L41.45405034179687,27.912753924560548L42.236450341796875,26.790553924560548L42.81035034179688,26.026453924560546L43.52675034179688,25.072053924560546L54.63785034179688,10.255753924560548L58.436350341796874,5.191573924560547L58.436350341796874,18.338653924560546L76.68925034179688,18.338653924560546C76.32375034179688,17.351253924560545,75.89325034179687,16.394553924560547,75.40255034179688,15.473653924560546C72.46765034179688,9.960153924560547,67.40085034179688,5.753213924560547,61.301350341796876,3.954143924560547C59.74495034179688,3.4953939245605468,58.122350341796874,3.1924539245605468,56.449250341796876,3.0649439245605468C55.85195034179688,3.019633924560547,55.247350341796874,2.9960739245605468,54.63785034179688,2.9960739245605468C41.655150341796876,2.9960739245605468,31.130370341796876,13.520853924560546,31.130370341796876,26.503553924560546C31.130370341796876,26.976953924560547,31.145290341796876,27.446653924560547,31.172260341796875,27.912753924560548C31.192950341796873,28.257353924560547,31.221230341796876,28.598253924560545,31.255530341796874,28.938053924560545L28.375581341796874,28.938053924560545C28.344953041796874,28.598253924560545,28.319287141796874,28.256253924560546,28.302011341796874,27.912753924560548C28.277392241796875,27.446653924560547,28.265350341796875,26.976953924560547,28.265350341796875,26.503553924560546Z" fill="#333333" fill-opacity="1"/></g></g><g><g><path d="M28.495765931640626,28.8073L31.110999931640624,28.8073C31.082449931640625,28.5067,31.059149931640626,28.209,31.041609931640625,27.9207C31.013589931640624,27.4379,30.999709931640623,26.9611,30.999709931640623,26.5037C30.999709931640623,13.4694,41.603829931640625,2.86528,54.637829931640624,2.86528C55.24342993164063,2.86528,55.856429931640626,2.88858,56.45942993164063,2.9344C58.11052993164063,3.06009,59.752329931640624,3.36094,61.33872993164063,3.82858C67.37982993164061,5.61064,72.54802993164063,9.83276,75.51832993164062,15.412C76.01212993164063,16.3389,76.44752993164062,17.3082,76.81202993164062,18.2932C76.82692993164062,18.3336,76.82122993164063,18.3783,76.79682993164062,18.4134C76.77222993164062,18.4485,76.73242993164062,18.4697,76.68952993164064,18.4697L58.43652993164062,18.4697C58.36402993164063,18.4697,58.305629931640624,18.4111,58.305629931640624,18.3388L58.305629931640624,5.58446L42.341229931640626,26.8692L41.70492993164062,27.782L65.70172993164063,27.782L66.93582993164063,26.1392L67.58802993164062,25.2031L47.10712993164063,25.2031C47.057629931640626,25.2031,47.01232993164062,25.1751,46.990129931640624,25.1306C46.96782993164062,25.0863,46.97252993164062,25.0332,47.00242993164062,24.9937L55.466829931640625,13.7085C55.500629931640624,13.6637,55.56002993164063,13.6451,55.612629931640626,13.6629C55.666329931640625,13.6807,55.70222993164062,13.7307,55.70222993164062,13.787L55.70222993164062,21.0729L80.31852993164063,21.0729C80.12822993164062,20.1696,79.88672993164062,19.2641,79.59932993164063,18.3791C79.28032993164062,17.4017,78.90492993164062,16.4426,78.48252993164063,15.5285C75.17292993164062,8.34946,68.89882993164062,3.09282,61.268629931640625,1.10653C60.34062993164063,0.865114,59.384429931640625,0.67214,58.426129931640624,0.532831C57.178129931640626,0.353218,55.90352993164063,0.261837,54.637829931640624,0.261837C40.168229931640624,0.261837,28.396266931640625,12.0338,28.396266931640625,26.5037C28.396266931640625,26.9724,28.408572931640624,27.4442,28.432919931640626,27.9061C28.446799931640626,28.1862,28.467487931640626,28.4821,28.495765931640626,28.8073ZM31.255519931640624,29.0691L28.375842931640626,29.0691C28.308025931640625,29.0691,28.251468931640623,29.0176,28.245451931640623,28.95C28.211411731640624,28.5737,28.187319931640626,28.2365,28.171610331640625,27.9194C28.146999231640624,27.4536,28.134429931640625,26.9771,28.134429931640625,26.5037C28.134429931640625,11.8895,40.02362993164063,0,54.637829931640624,0C55.916129931640626,0,57.203329931640624,0.0921639,58.46352993164062,0.273615C59.431329931640626,0.41449,60.397229931640624,0.609302,61.334529931640624,0.853064C69.04092993164062,2.85926,75.37772993164063,8.16826,78.72032993164063,15.4188C79.14652993164063,16.3423,79.52622993164063,17.3108,79.84832993164062,18.298C80.15542993164063,19.244,80.41072993164062,20.2125,80.60762993164062,21.1776C80.61542993164062,21.2161,80.60582993164063,21.2562,80.58092993164063,21.2866C80.55572993164063,21.3172,80.51882993164062,21.3347,80.47932993164062,21.3347L55.57122993164063,21.3347C55.49902993164062,21.3347,55.440329931640626,21.2761,55.440329931640626,21.2038L55.440329931640626,14.1795L47.36892993164062,24.9413L67.83882993164062,24.9413C67.88752993164063,24.9413,67.93232993164062,24.9682,67.95482993164063,25.0115C67.97742993164063,25.0547,67.97402993164062,25.107,67.94622993164063,25.1471L67.14762993164062,26.2926L65.87172993164063,27.9914C65.84702993164063,28.0244,65.80832993164063,28.0438,65.76722993164063,28.0438L41.45412993164062,28.0438C41.40532993164062,28.0438,41.360629931640624,28.0166,41.33802993164063,27.9734C41.315529931640626,27.9301,41.318929931640625,27.878,41.346729931640624,27.838L42.12912993164063,26.7157L43.422329931640625,24.9937L58.331529931640624,5.11316C58.365629931640626,5.06812,58.425329931640626,5.04952,58.477929931640624,5.0676C58.53132993164063,5.0854,58.567429931640625,5.1354,58.567429931640625,5.1917L58.567429931640625,18.2079L76.50042993164062,18.2079C76.15372993164063,17.2946,75.74612993164062,16.3965,75.28712993164064,15.5351C72.34982993164063,10.0174,67.23872993164062,5.84211,61.26442993164063,4.07968C59.69602993164062,3.61728,58.07262993164062,3.31984,56.43952993164062,3.19545C55.84302993164063,3.15016,55.237129931640624,3.12712,54.637829931640624,3.12712C41.747829931640624,3.12712,31.261549931640626,13.614,31.261549931640626,26.5037C31.261549931640626,26.9561,31.275429931640623,27.4277,31.302919931640623,27.9053C31.323079931640624,28.2355,31.350839931640625,28.5787,31.385659931640625,28.9251C31.389589931640625,28.9618,31.377539931640626,28.9984,31.352659931640623,29.0259C31.327789931640623,29.0534,31.292699931640627,29.0691,31.255519931640624,29.0691Z" fill="#333333" fill-opacity="1"/></g></g><g><g><path d="M0,70.87343120605469L2.36256,70.64378120605468C2.50499,71.43664120605469,2.79328,72.01922120605468,3.22819,72.39105120605468C3.6631,72.76311120605469,4.24962,72.94901120605469,4.98799,72.94901120605469C5.7701,72.94901120605469,6.3595,72.78351120605468,6.75592,72.45283120605468C7.15234,72.12186120605469,7.35055,71.73486120605469,7.35055,71.29185120605469C7.35055,71.00748120605469,7.26729,70.76527120605469,7.1005,70.56576120605469C6.93345,70.36625120605468,6.64254,70.19238120605469,6.22675,70.04471120605469C5.94239,69.94626120605469,5.29434,69.77136120605469,4.28235,69.5199812060547C2.98075,69.19716120605469,2.06746,68.80047120605468,1.54222,68.33021120605468C0.803842,67.66855120605469,0.434914,66.86182120605469,0.434914,65.91004120605469C0.434914,65.2976012060547,0.608511,64.72471120605469,0.955703,64.19135120605469C1.30316,63.65824120605469,1.80353,63.25212920605469,2.45708,62.97328820605469C3.11062,62.694159206054685,3.89954,62.55461120605469,4.82382,62.55461120605469C6.33331,62.55461120605469,7.46969,62.885551206054686,8.23242,63.547495206054684C8.99541,64.20915120605468,9.39628,65.09234120605468,9.43452,66.19728120605468L7.00597,66.30385120605469C6.90228,65.68591120605468,6.6792,65.24157120605469,6.33751,64.9708212060547C5.99555,64.7000912060547,5.48287,64.56473120605469,4.79921,64.56473120605469C4.09382,64.56473120605469,3.54134,64.70952120605469,3.14204,64.99936120605469C2.88519,65.1855412060547,2.75636,65.43427120605469,2.75636,65.74588120605469C2.75636,66.03047120605468,2.8768,66.2737412060547,3.11743,66.47612120605469C3.42378,66.73326120605469,4.16766,67.00111120605469,5.34881,67.28024120605468C6.53022,67.55908120605469,7.40397,67.84764120605469,7.97006,68.14559120605469C8.53615,68.44383120605468,8.97918,68.85126120605469,9.29915,69.36787120605469C9.61911,69.88499120605469,9.77909,70.52335120605468,9.77909,71.28374120605469C9.77909,71.9728812060547,9.58769,72.61831120605468,9.20462,73.21971120605468C8.82181,73.82141120605469,8.2806,74.2684112060547,7.58044,74.56111120605469C6.88029,74.8536112060547,6.00785,75.0000112060547,4.96338,75.0000112060547C3.44289,75.0000112060547,2.2751,74.64861120605468,1.46026,73.94581120605469C0.645427,73.24301120605469,0.158414,72.21899120605468,0,70.87343120605469Z" fill="#333333" fill-opacity="1"/></g></g><g><g><path d="M14.86514982421875,74.78667407226563L14.86514982421875,64.79444407226562L11.29656982421875,64.79444407226562L11.29656982421875,62.759674072265625L20.85414982421875,62.759674072265625L20.85414982421875,64.79444407226562L17.293429824218748,64.79444407226562L17.293429824218748,74.78667407226563L14.86514982421875,74.78667407226563Z" fill="#333333" fill-opacity="1"/></g></g><g><g><path d="M27.884308173828124,70.02842666015626L26.227138173828124,65.56568666015625L24.602708173828127,70.02842666015626L27.884308173828124,70.02842666015626ZM32.35542817382812,74.78652666015626L29.713758173828126,74.78652666015626L28.663788173828124,72.05478666015625L23.856208173828126,72.05478666015625L22.863588173828123,74.78652666015626L20.287628173828125,74.78652666015626L24.971898173828123,62.75982666015625L27.539728173828124,62.75982666015625L32.35542817382812,74.78652666015626Z" fill="#333333" fill-opacity="1"/></g></g><g><g><path d="M36.41600193359375,67.84615458984375L38.21273193359375,67.84615458984375C39.37764193359375,67.84615458984375,40.10502193359375,67.79693458984374,40.39487193359375,67.69849458984375C40.68473193359375,67.60004458984375,40.91174193359375,67.43061458984376,41.07592193359375,67.18999458984375C41.23982193359375,66.94935458984375,41.32204193359375,66.64852458984375,41.32204193359375,66.28744458984374C41.32204193359375,65.88263458984375,41.213901933593746,65.55588458984376,40.99790193359375,65.30711458984375C40.78188193359375,65.05838458984375,40.47683193359375,64.90100458984375,40.08303193359375,64.83528458984375C39.88613193359375,64.80805458984375,39.29568193359375,64.79443458984375,38.31118193359375,64.79443458984375L36.41600193359375,64.79443458984375L36.41600193359375,67.84615458984375ZM33.98773193359375,74.78670458984375L33.98773193359375,62.75970458984375L39.09879193359375,62.75970458984375C40.38388193359375,62.75970458984375,41.31786193359375,62.86786558984375,41.90018193359375,63.08386858984375C42.48276193359375,63.29987158984375,42.94909193359375,63.68399658984375,43.29918193359375,64.23646458984375C43.649251933593746,64.78894458984375,43.824151933593754,65.42048458984375,43.824151933593754,66.13165458984375C43.824151933593754,67.03395458984374,43.55891193359375,67.77913458984375,43.028441933593754,68.36721458984375C42.49796193359375,68.95503458984375,41.70484193359375,69.32554458984374,40.64912193359375,69.47870458984374C41.17436193359375,69.78506458984376,41.60771193359375,70.12125458984374,41.94940193359375,70.48782458984375C42.29137193359375,70.85440458984375,42.75219193359375,71.50506458984376,43.33191193359375,72.44035458984375L44.80033193359375,74.78670458984375L41.89625193359375,74.78670458984375L40.14064193359375,72.16959458984375C39.51720193359375,71.23434458984374,39.09040193359375,70.64492458984375,38.86078193359375,70.40168458984375C38.63114193359375,70.15845458984376,38.38764193359375,69.99138458984375,38.13051193359375,69.90131458984375C37.87365193359375,69.81098458984376,37.46623193359375,69.76595458984374,36.90826193359375,69.76595458984374L36.41600193359375,69.76595458984374L36.41600193359375,74.78670458984375L33.98773193359375,74.78670458984375Z" fill="#333333" fill-opacity="1"/></g></g><g><g><path d="M48.8773666796875,64.79440407226562L48.8773666796875,68.20717407226563L50.2064466796875,68.20717407226563C51.1634766796875,68.20717407226563,51.8033966796875,68.14433407226562,52.1259766796875,68.01840407226562C52.4488266796875,67.89272407226562,52.7017666796875,67.69580407226563,52.8850566796875,67.42796407226562C53.0680766796875,67.15982407226562,53.1597066796875,66.84800407226562,53.1597066796875,66.49267407226563C53.1597066796875,66.05488407226562,53.0311566796875,65.69405407226563,52.7740366796875,65.40972407226562C52.5171666796875,65.12534407226562,52.1917066796875,64.94757407226562,51.7978966796875,64.87636407226563C51.5080466796875,64.82164407226563,50.9254666796875,64.79440407226562,50.0503966796875,64.79440407226562L48.8773666796875,64.79440407226562ZM46.4490966796875,74.78667407226563L46.4490966796875,62.759674072265625L50.3457466796875,62.759674072265625C51.8225066796875,62.759674072265625,52.7850266796875,62.819891472265624,53.2335566796875,62.94032607226563C53.9227066796875,63.120723072265626,54.4997966796875,63.513223072265625,54.9645566796875,64.11753407226563C55.4293166796875,64.72188407226562,55.6620866796875,65.50266407226563,55.6620866796875,66.45968407226563C55.6620866796875,67.19805407226562,55.5277666796875,67.81886407226563,55.259906679687504,68.32214407226563C54.9920566796875,68.82539407226562,54.6513966796875,69.22022407226562,54.2384766796875,69.50747407226562C53.8255666796875,69.79469407226563,53.405836679687496,69.98480407226563,52.9793166796875,70.07775407226562C52.3996066796875,70.19243407226563,51.5601466796875,70.25002407226563,50.4606966796875,70.25002407226563L48.8773666796875,70.25002407226563L48.8773666796875,74.78667407226563L46.4490966796875,74.78667407226563Z" fill="#333333" fill-opacity="1"/></g></g><g><g><path d="M60.001647578125,68.76503905273438C60.001647578125,70.12685905273437,60.316107578125,71.15927905273438,60.945047578125,71.86203905273437C61.573977578124996,72.56487905273437,62.372577578125004,72.91617905273438,63.340597578125,72.91617905273438C64.308607578125,72.91617905273438,65.103027578125,72.56747905273437,65.723827578125,71.87015905273438C66.344657578125,71.17289905273438,66.654937578125,70.12685905273437,66.654937578125,68.73230905273438C66.654937578125,67.35401905273437,66.352757578125,66.32577905273438,65.748447578125,65.64759905273438C65.144127578125,64.96944905273438,64.341337578125,64.63035905273438,63.340597578125,64.63035905273438C62.339597578125,64.63035905273438,61.533127578125,64.97363905273437,60.920437578125004,65.65990905273438C60.307737578125,66.34620905273438,60.001647578125,67.38124905273438,60.001647578125,68.76503905273438ZM57.499267578125,68.84698905273437C57.499267578125,67.62185905273438,57.682556578125,66.59387905273438,58.049134578125,65.76256905273438C58.322494578125,65.14984905273438,58.695867578125004,64.60024905273437,59.169007578125,64.11349905273437C59.641887578125,63.62673905273437,60.160067578125,63.26568905273437,60.723537578125,63.03054105273438C61.472917578125,62.71347305273437,62.336967578125,62.554779052734375,63.315987578125004,62.554779052734375C65.088097578125,62.554779052734375,66.505937578125,63.104375052734376,67.569567578125,64.20384905273437C68.633367578125,65.30304905273438,69.165367578125,66.83164905273438,69.165367578125,68.78964905273438C69.165367578125,70.73117905273438,68.637567578125,72.25034905273438,67.582067578125,73.34687905273438C66.526357578125,74.44347905273438,65.115327578125,74.99177905273437,63.348717578125,74.99177905273437C61.560357578125,74.99177905273437,60.138337578125,74.44607905273438,59.082867578125,73.35507905273437C58.027128578125,72.26396905273438,57.499267578125,70.76128905273437,57.499267578125,68.84698905273437Z" fill="#333333" fill-opacity="1"/></g></g><g><g><path d="M73.10272479492187,74.78667407226563L70.23141479492188,62.759674072265625L72.71702479492187,62.759674072265625L74.53024479492187,71.02115407226563L76.72890479492187,62.759674072265625L79.61669479492187,62.759674072265625L81.72501479492188,71.16048407226563L83.57071479492187,62.759674072265625L86.01551479492187,62.759674072265625L83.09521479492187,74.78667407226563L80.51901479492187,74.78667407226563L78.12344479492188,65.79515407226563L75.73627479492187,74.78667407226563L73.10272479492187,74.78667407226563Z" fill="#333333" fill-opacity="1"/></g></g><g><g><path d="M87.59048461914062,74.78667407226563L87.59048461914062,62.759674072265625L96.50812461914063,62.759674072265625L96.50812461914063,64.79444407226562L90.01875461914062,64.79444407226562L90.01875461914062,67.46072407226562L96.05671461914062,67.46072407226562L96.05671461914062,69.48708407226563L90.01875461914062,69.48708407226563L90.01875461914062,72.76027407226563L96.73776461914062,72.76027407226563L96.73776461914062,74.78667407226563L87.59048461914062,74.78667407226563Z" fill="#333333" fill-opacity="1"/></g></g><g><g><path d="M101.56956638671875,67.84615458984375L103.36603638671875,67.84615458984375C104.53121638671875,67.84615458984375,105.25860638671875,67.79693458984374,105.54845638671875,67.69849458984375C105.83830638671876,67.60004458984375,106.06532638671875,67.43061458984376,106.22922638671875,67.18999458984375C106.39340638671875,66.94935458984375,106.47535638671874,66.64852458984375,106.47535638671874,66.28744458984374C106.47535638671874,65.88263458984375,106.36747638671875,65.55588458984376,106.15146638671875,65.30711458984375C105.93544638671875,65.05838458984375,105.63040638671875,64.90100458984375,105.23659638671874,64.83528458984375C105.03970638671875,64.80805458984375,104.44899638671875,64.79443458984375,103.46448638671875,64.79443458984375L101.56956638671875,64.79443458984375L101.56956638671875,67.84615458984375ZM99.14129638671875,74.78670458984375L99.14129638671875,62.75970458984375L104.25210638671875,62.75970458984375C105.53745638671874,62.75970458984375,106.47142638671875,62.86786558984375,107.05374638671876,63.08386858984375C107.63634638671876,63.29987158984375,108.10267638671876,63.68399658984375,108.45248638671875,64.23646458984375C108.80256638671875,64.78894458984375,108.97747638671875,65.42048458984375,108.97747638671875,66.13165458984375C108.97747638671875,67.03395458984374,108.71223638671876,67.77913458984375,108.18175638671875,68.36721458984375C107.65127638671875,68.95503458984375,106.85815638671875,69.32554458984374,105.80270638671875,69.47870458984374C106.32768638671875,69.78506458984376,106.76127638671875,70.12125458984374,107.10298638671875,70.48782458984375C107.44467638671875,70.85440458984375,107.90577638671876,71.50506458984376,108.48547638671874,72.44035458984375L109.95389638671875,74.78670458984375L107.04983638671875,74.78670458984375L105.29420638671876,72.16959458984375C104.67050638671876,71.23434458984374,104.24398638671875,70.64492458984375,104.01434638671876,70.40168458984375C103.78445638671874,70.15845458984376,103.54120638671876,69.99138458984375,103.28408638671876,69.90131458984375C103.02696638671875,69.81098458984376,102.61953638671875,69.76595458984374,102.06182638671875,69.76595458984374L101.56956638671875,69.76595458984374L101.56956638671875,74.78670458984375L99.14129638671875,74.78670458984375Z" fill="#333333" fill-opacity="1"/></g></g></g></g></g></svg>